# Blender v2.80 (sub 75) OBJ File: 'Carteles_UVs.blend'
# www.blender.org
o Cartel_2_Cube.009
v 0.190803 0.670830 -1.872550
v 0.207175 0.603563 -1.872550
v 0.190803 0.670830 -1.847993
v 0.207175 0.603563 -1.847993
v -0.195078 0.670926 -1.872550
v -0.210645 0.603467 -1.872550
v -0.195078 0.670926 -1.847993
v -0.210645 0.603467 -1.847993
v 0.002079 0.652321 -1.847993
v 0.002830 0.584960 -1.847993
v 0.002079 0.652321 -1.872550
v 0.002830 0.584960 -1.872550
v -0.407712 0.130593 -0.622347
v -0.096834 1.549160 -0.622347
v -0.407712 0.130593 -1.924760
v -0.096834 1.549160 -1.924760
v -0.345299 0.116915 -0.622347
v -0.034422 1.535482 -0.622347
v -0.345299 0.116915 -1.924760
v -0.034422 1.535482 -1.924760
v -0.034422 1.535482 -0.820905
v -0.345299 0.116915 -0.821935
v -0.034422 1.535482 -1.721250
v -0.345299 0.116915 -1.722541
v -0.001383 1.528242 -1.924760
v -0.312260 0.109675 -1.924760
v -0.312260 0.109675 -1.722541
v -0.001383 1.528242 -0.820905
v -0.001383 1.528242 -0.622347
v -0.312260 0.109675 -0.622347
v -0.312260 0.109675 -0.821935
v -0.001383 1.528242 -1.721250
v -0.368908 0.009187 -1.722541
v -0.368908 0.009187 -1.924760
v -0.368908 0.009187 -0.622347
v -0.368908 0.009187 -0.821935
v -0.335869 0.001947 -1.722541
v -0.335869 0.001947 -1.924760
v -0.335869 0.001947 -0.622347
v -0.335869 0.001947 -0.821935
v 0.408117 0.130593 -1.924760
v 0.097239 1.549160 -1.924760
v 0.408117 0.130593 -0.622347
v 0.097239 1.549160 -0.622347
v 0.345704 0.116915 -1.924760
v 0.034827 1.535482 -1.924760
v 0.345704 0.116915 -0.622347
v 0.034827 1.535482 -0.622347
v 0.034827 1.535482 -1.726202
v 0.345704 0.116915 -1.725172
v 0.034827 1.535482 -0.825857
v 0.345704 0.116915 -0.824566
v 0.001788 1.528242 -0.622347
v 0.312665 0.109675 -0.622347
v 0.312665 0.109675 -0.824566
v 0.001788 1.528242 -1.726202
v 0.001788 1.528242 -1.924760
v 0.312665 0.109675 -1.924760
v 0.312665 0.109675 -1.725172
v 0.001788 1.528242 -0.825857
v 0.369313 0.009187 -0.824566
v 0.369313 0.009187 -0.622347
v 0.369313 0.009187 -1.924760
v 0.369313 0.009187 -1.725172
v 0.336274 0.001947 -0.824566
v 0.336274 0.001947 -0.622347
v 0.336274 0.001947 -1.924760
v 0.336274 0.001947 -1.725172
v 0.190803 0.670830 -0.698305
v 0.207175 0.603563 -0.698305
v 0.190803 0.670830 -0.673749
v 0.207175 0.603563 -0.673749
v -0.195078 0.670926 -0.698305
v -0.210645 0.603467 -0.698305
v -0.195078 0.670926 -0.673749
v -0.210645 0.603467 -0.673749
v 0.002079 0.652321 -0.673749
v 0.002830 0.584960 -0.673749
v 0.002079 0.652321 -0.698305
v 0.002830 0.584960 -0.698305
vt 0.864838 0.131822
vt 0.855685 0.139767
vt 0.852867 0.136521
vt 0.862019 0.128576
vt 0.815256 0.152460
vt 0.808463 0.162100
vt 0.780051 0.137608
vt 0.789170 0.129625
vt 0.777219 0.134373
vt 0.786339 0.126390
vt 0.889907 0.153585
vt 0.882975 0.163126
vt 0.815256 0.106789
vt 0.812424 0.103555
vt 0.825741 0.160069
vt 0.828559 0.163316
vt 0.751825 0.162316
vt 0.748994 0.159081
vt 0.887089 0.106813
vt 0.889907 0.110059
vt 0.756701 0.102969
vt 0.767156 0.097512
vt 0.833575 0.106220
vt 0.843995 0.100697
vt 0.982774 0.644794
vt 0.982644 0.899028
vt 0.754637 0.898912
vt 0.754767 0.644677
vt 0.754612 0.644660
vt 0.743426 0.898895
vt 0.743426 0.644660
vt 0.947887 0.909954
vt 0.982647 0.909924
vt 0.982652 0.915845
vt 0.947892 0.915875
vt 0.491534 0.644799
vt 0.491715 0.899035
vt 0.480530 0.899043
vt 0.480349 0.644807
vt 0.754752 0.644546
vt 0.754770 0.633361
vt 0.790171 0.633416
vt 0.947837 0.633661
vt 0.982777 0.633716
vt 0.982760 0.644901
vt 0.754638 0.910122
vt 0.982637 0.898739
vt 0.790266 0.910091
vt 0.538329 0.644795
vt 0.538160 0.899031
vt 0.532239 0.899027
vt 0.532409 0.644791
vt 0.695994 0.644788
vt 0.695780 0.899023
vt 0.737012 0.644648
vt 0.737492 0.898883
vt 0.701865 0.898951
vt 0.701611 0.644715
vt 0.497479 0.899028
vt 0.497469 0.644793
vt 0.695945 0.898956
vt 0.695690 0.644721
vt 0.737505 0.644660
vt 0.790271 0.916012
vt 0.754644 0.916044
vt 0.701575 0.625408
vt 0.736976 0.625341
vt 0.497636 0.899031
vt 0.737505 0.625354
vt 0.743426 0.625354
vt 0.497663 0.619301
vt 0.532604 0.619139
vt 0.532631 0.625060
vt 0.497691 0.625222
vt 0.701739 0.618983
vt 0.737141 0.619056
vt 0.737128 0.624977
vt 0.701727 0.624904
vt 0.947867 0.614355
vt 0.982807 0.614409
vt 0.491521 0.625492
vt 0.497442 0.625488
vt 0.497454 0.625489
vt 0.532395 0.625488
vt 0.695670 0.625414
vt 0.754800 0.614054
vt 0.790201 0.614109
vt 0.538342 0.625494
vt 0.982693 0.287399
vt 0.982693 0.541633
vt 0.754687 0.541633
vt 0.754687 0.287399
vt 0.754340 0.287433
vt 0.754597 0.541659
vt 0.743412 0.541671
vt 0.743154 0.287444
vt 0.947940 0.552721
vt 0.982700 0.552706
vt 0.982703 0.558627
vt 0.947943 0.558643
vt 0.491416 0.287652
vt 0.491762 0.541888
vt 0.480577 0.541903
vt 0.480231 0.287667
vt 0.754738 0.286721
vt 0.754759 0.275536
vt 0.790160 0.275601
vt 0.947826 0.275889
vt 0.982766 0.275953
vt 0.982746 0.287139
vt 0.754692 0.552808
vt 0.982695 0.541520
vt 0.790319 0.552792
vt 0.538220 0.287637
vt 0.538300 0.541872
vt 0.532379 0.541874
vt 0.532300 0.287639
vt 0.695885 0.287475
vt 0.695919 0.541711
vt 0.737207 0.287438
vt 0.737467 0.541673
vt 0.701839 0.541710
vt 0.701806 0.287474
vt 0.497618 0.541909
vt 0.497360 0.287674
vt 0.737232 0.287450
vt 0.790322 0.558713
vt 0.754695 0.558729
vt 0.701786 0.268167
vt 0.737188 0.268131
vt 0.497337 0.287644
vt 0.497683 0.541879
vt 0.743134 0.268135
vt 0.497305 0.262320
vt 0.532245 0.262198
vt 0.532266 0.268120
vt 0.497326 0.268241
vt 0.701540 0.261966
vt 0.736941 0.261844
vt 0.736962 0.267765
vt 0.701561 0.267888
vt 0.947861 0.256582
vt 0.982801 0.256646
vt 0.491390 0.268345
vt 0.497311 0.268337
vt 0.497340 0.268367
vt 0.532280 0.268332
vt 0.695882 0.268168
vt 0.754794 0.256229
vt 0.790195 0.256294
vt 0.538214 0.268335
vt 0.685643 0.138114
vt 0.676490 0.130169
vt 0.679309 0.126923
vt 0.688461 0.134868
vt 0.593346 0.166977
vt 0.582891 0.161520
vt 0.603409 0.130117
vt 0.612529 0.138100
vt 0.606241 0.126882
vt 0.615360 0.134865
vt 0.667619 0.165993
vt 0.657198 0.160470
vt 0.638614 0.160935
vt 0.641446 0.157700
vt 0.652182 0.103374
vt 0.649364 0.106621
vt 0.575184 0.105408
vt 0.578015 0.102174
vt 0.713530 0.156631
vt 0.710712 0.159877
vt 0.634653 0.102389
vt 0.641446 0.112030
vt 0.706599 0.103564
vt 0.713530 0.113105
vn -0.9716 -0.2365 0.0000
vn 0.0000 0.0000 -1.0000
vn 0.9744 -0.2248 0.0000
vn -0.0000 0.0000 1.0000
vn -0.0939 -0.9956 0.0000
vn -0.0907 0.9959 0.0000
vn 0.0864 0.9963 0.0000
vn 0.0976 -0.9952 0.0000
vn -0.9768 0.2141 0.0000
vn 0.2141 0.9768 0.0000
vn -0.2141 -0.9768 0.0000
vn 0.0002 0.0007 -1.0000
vn 0.9768 -0.2141 0.0000
vn -0.0002 -0.0009 1.0000
vn 0.9768 0.2141 -0.0000
vn -0.2141 0.9768 -0.0000
vn 0.2141 -0.9768 -0.0000
vn -0.0002 0.0007 1.0000
vn -0.9768 -0.2141 0.0000
vn 0.0002 -0.0009 -1.0000
s off
f 1/1/1 2/2/1 4/3/1 3/4/1
f 9/5/2 10/6/2 8/7/2 7/8/2
f 7/8/3 8/7/3 6/9/3 5/10/3
f 11/11/4 12/12/4 2/2/4 1/1/4
f 9/13/5 7/8/5 5/10/5 11/14/5
f 10/15/6 4/3/6 2/2/6 12/16/6
f 8/7/7 10/17/7 12/18/7 6/9/7
f 3/4/8 9/19/8 11/20/8 1/1/8
f 5/10/4 6/9/4 12/21/4 11/22/4
f 3/4/2 4/3/2 10/23/2 9/24/2
f 13/25/9 14/26/9 16/27/9 15/28/9
f 15/29/2 16/27/2 20/30/2 19/31/2
f 21/32/10 18/33/10 29/34/10 28/35/10
f 17/36/4 18/37/4 14/38/4 13/39/4
f 15/40/11 19/41/11 24/42/11 22/43/11 17/44/11 13/45/11
f 20/46/10 16/27/10 14/47/10 18/33/10 21/32/10 23/48/10
f 22/49/12 21/50/12 28/51/12 31/52/12
f 24/53/13 23/54/13 21/50/13 22/49/13
f 26/55/13 25/56/13 32/57/13 27/58/13
f 31/52/13 28/51/13 29/59/13 30/60/13
f 23/61/14 24/62/14 27/58/14 32/57/14
f 19/31/2 20/30/2 25/56/2 26/63/2
f 20/46/10 23/48/10 32/64/10 25/65/10
f 26/55/13 27/58/13 37/66/13 38/67/13
f 18/37/4 17/36/4 30/60/4 29/68/4
f 19/31/2 26/63/2 38/69/2 34/70/2
f 35/71/11 36/72/11 40/73/11 39/74/11
f 33/75/11 34/76/11 38/77/11 37/78/11
f 17/44/9 22/43/9 36/79/9 35/80/9
f 30/60/4 17/36/4 35/81/4 39/82/4
f 31/52/13 30/60/13 39/83/13 40/84/13
f 27/58/4 24/62/4 33/85/4 37/66/4
f 24/42/9 19/41/9 34/86/9 33/87/9
f 22/49/2 31/52/2 40/84/2 36/88/2
f 41/89/15 42/90/15 44/91/15 43/92/15
f 43/93/4 44/94/4 48/95/4 47/96/4
f 49/97/16 46/98/16 57/99/16 56/100/16
f 45/101/2 46/102/2 42/103/2 41/104/2
f 43/105/17 47/106/17 52/107/17 50/108/17 45/109/17 41/110/17
f 48/111/16 44/91/16 42/112/16 46/98/16 49/97/16 51/113/16
f 50/114/18 49/115/18 56/116/18 59/117/18
f 52/118/19 51/119/19 49/115/19 50/114/19
f 54/120/19 53/121/19 60/122/19 55/123/19
f 59/117/19 56/116/19 57/124/19 58/125/19
f 51/119/20 52/118/20 55/123/20 60/122/20
f 47/96/4 48/95/4 53/121/4 54/126/4
f 48/111/16 51/113/16 60/127/16 53/128/16
f 54/120/19 55/123/19 65/129/19 66/130/19
f 46/102/2 45/101/2 58/131/2 57/132/2
f 47/96/4 54/126/4 66/130/4 62/133/4
f 63/134/17 64/135/17 68/136/17 67/137/17
f 61/138/17 62/139/17 66/140/17 65/141/17
f 45/109/15 50/108/15 64/142/15 63/143/15
f 58/131/2 45/101/2 63/144/2 67/145/2
f 59/117/19 58/125/19 67/146/19 68/147/19
f 55/123/2 52/118/2 61/148/2 65/129/2
f 52/107/15 47/106/15 62/149/15 61/150/15
f 50/114/4 59/117/4 68/147/4 64/151/4
f 69/152/1 70/153/1 72/154/1 71/155/1
f 77/156/2 78/157/2 76/158/2 75/159/2
f 75/159/3 76/158/3 74/160/3 73/161/3
f 79/162/4 80/163/4 70/153/4 69/152/4
f 77/164/5 75/159/5 73/161/5 79/165/5
f 78/166/6 72/154/6 70/153/6 80/167/6
f 76/158/7 78/168/7 80/169/7 74/160/7
f 71/155/8 77/170/8 79/171/8 69/152/8
f 73/161/4 74/160/4 80/172/4 79/173/4
f 71/155/2 72/154/2 78/174/2 77/175/2
