# Blender v2.81 (sub 16) OBJ File: 'ROBOT_TEXTURIZADO (FINAL)_Robot Desdoble.blend'
# www.blender.org
o Robot_sin_ojos.007_Sphere.006
v 0.161316 0.867477 0.024060
v 0.189669 0.841795 0.045691
v 0.342464 0.556632 0.164657
v 0.372393 0.431711 0.187100
v 0.386569 0.317962 0.196752
v 0.383419 0.248265 0.194129
v 0.369995 0.195763 0.188602
v 0.303084 0.108871 0.145467
v 0.195970 0.043820 0.099779
v 0.032149 0.008971 -0.029156
v 0.231448 0.864151 -0.100554
v 0.270303 0.837595 -0.099954
v 0.473994 0.552810 -0.095774
v 0.512960 0.431327 -0.094962
v 0.531404 0.321717 -0.094615
v 0.527342 0.254553 -0.094704
v 0.494505 0.175522 -0.095331
v 0.421704 0.117662 -0.096517
v 0.277147 0.051079 -0.097759
v 0.051030 0.009491 -0.074709
v 0.161612 0.857656 -0.220477
v 0.188556 0.831204 -0.239633
v 0.328085 0.549876 -0.339124
v 0.356139 0.431086 -0.359685
v 0.369552 0.323387 -0.368280
v 0.366571 0.257449 -0.365658
v 0.343021 0.180322 -0.348405
v 0.292694 0.123489 -0.312465
v 0.194480 0.054607 -0.243798
v 0.036495 0.010529 -0.116204
v 0.241651 0.762605 0.086308
v 0.290482 0.667524 0.124913
v 0.318587 0.782607 -0.099055
v 0.405687 0.662432 -0.097245
v 0.236762 0.751248 -0.273307
v 0.280694 0.656965 -0.304145
v 0.053515 0.898901 -0.059353
v 0.075443 0.897861 -0.098316
v 0.053608 0.895830 -0.135811
v 0.037421 0.925088 -0.059353
v 0.053278 0.924049 -0.098316
v 0.037488 0.922018 -0.135811
v 0.041518 0.915471 -0.135811
v 0.045548 0.908924 -0.135811
v 0.049578 0.902377 -0.135811
v 0.041444 0.918541 -0.059353
v 0.045468 0.911995 -0.059353
v 0.049492 0.905448 -0.059353
v 0.069902 0.904408 -0.098316
v 0.064360 0.910955 -0.098316
v 0.058819 0.917502 -0.098316
v -0.161316 0.867477 0.024060
v -0.189669 0.841795 0.045691
v -0.342464 0.556632 0.164657
v -0.372393 0.431711 0.187101
v -0.386569 0.317962 0.196752
v -0.383419 0.248265 0.194129
v -0.362052 0.182873 0.187245
v -0.303084 0.108871 0.145467
v -0.195970 0.043820 0.099779
v -0.032149 0.008971 -0.029156
v -0.231448 0.864151 -0.100554
v -0.270303 0.837595 -0.099954
v -0.473994 0.552810 -0.095774
v -0.512960 0.431327 -0.094962
v -0.531404 0.321717 -0.094615
v -0.527342 0.254553 -0.094704
v -0.494505 0.175522 -0.095331
v -0.421704 0.117662 -0.096517
v -0.277147 0.051079 -0.097759
v -0.051030 0.009491 -0.074709
v -0.161612 0.857656 -0.220477
v -0.188556 0.831204 -0.239633
v -0.328085 0.549876 -0.339124
v -0.356139 0.431086 -0.359685
v -0.369552 0.323387 -0.368280
v -0.366571 0.257449 -0.365658
v -0.343022 0.180322 -0.348405
v -0.292694 0.123489 -0.312465
v -0.194480 0.054607 -0.243798
v -0.036495 0.010529 -0.116204
v -0.306697 0.750938 -0.030702
v -0.350821 0.689831 -0.022079
v -0.241651 0.762605 0.086308
v -0.290482 0.667524 0.124913
v -0.318587 0.782607 -0.099055
v -0.405687 0.662432 -0.097245
v -0.236762 0.751248 -0.273307
v -0.280694 0.656965 -0.304145
v -0.053515 0.898901 -0.059353
v -0.075443 0.897861 -0.098316
v -0.053608 0.895830 -0.135811
v 0.000000 0.860398 0.077745
v 0.000000 0.833899 0.108972
v 0.000000 0.752378 0.167110
v 0.000000 0.656805 0.221540
v 0.000000 0.548428 0.278736
v 0.000000 0.429358 0.316737
v 0.000000 0.322129 0.337972
v 0.000000 0.255519 0.347320
v 0.000000 0.184540 0.339134
v 0.000000 0.119221 0.322555
v 0.000000 0.052651 0.236970
v -0.000000 0.009408 -0.010282
v -0.000000 0.851439 -0.267263
v -0.000000 0.825325 -0.294248
v -0.000000 0.747106 -0.347926
v -0.000000 0.655297 -0.408916
v -0.000000 0.549774 -0.479616
v -0.000000 0.431086 -0.524748
v -0.000000 0.323387 -0.538800
v -0.000000 0.257449 -0.527789
v -0.000000 0.180410 -0.486493
v -0.000000 0.123605 -0.419282
v -0.000000 0.055006 -0.305963
v -0.000000 0.011354 -0.133421
v -0.000000 0.010381 -0.071851
v -0.000000 0.896688 -0.042568
v -0.000000 0.893886 -0.150440
v -0.037421 0.925088 -0.059353
v -0.053278 0.924049 -0.098316
v -0.037488 0.922018 -0.135811
v -0.000000 0.922875 -0.042568
v -0.000000 0.920074 -0.150440
v -0.041518 0.915471 -0.135811
v -0.045548 0.908924 -0.135811
v -0.049578 0.902377 -0.135811
v -0.000000 0.900433 -0.150440
v -0.000000 0.906980 -0.150440
v -0.000000 0.913527 -0.150440
v -0.041444 0.918541 -0.059353
v -0.045468 0.911995 -0.059353
v -0.049492 0.905448 -0.059353
v -0.069902 0.904408 -0.098316
v -0.064360 0.910955 -0.098316
v -0.058819 0.917502 -0.098316
v -0.000000 0.916328 -0.042568
v -0.000000 0.909781 -0.042568
v -0.000000 0.903235 -0.042568
v 0.346994 0.688417 -0.012758
v 0.302572 0.751678 -0.023282
v 0.311027 0.755067 -0.098537
v 0.369991 0.682815 -0.097523
v 0.307617 0.749721 -0.154055
v 0.353747 0.685068 -0.159659
v -0.336676 0.684602 0.012379
v -0.291449 0.753673 -0.003272
v -0.312407 0.760095 -0.098632
v -0.376509 0.679093 -0.097472
v -0.306390 0.754254 -0.181487
v -0.347380 0.681784 -0.188716
vt 0.616185 0.595927
vt 0.627174 0.584813
vt 0.698991 0.647118
vt 0.688001 0.660925
vt 0.555315 0.657668
vt 0.577130 0.635493
vt 0.640764 0.703156
vt 0.610551 0.722322
vt 0.665556 0.546083
vt 0.723121 0.487905
vt 0.735414 0.495638
vt 0.721992 0.571008
vt 0.503861 0.710310
vt 0.512998 0.700929
vt 0.551540 0.750446
vt 0.537609 0.754246
vt 0.638788 0.573128
vt 0.705992 0.635051
vt 0.598428 0.613901
vt 0.667314 0.681445
vt 0.534026 0.679391
vt 0.581529 0.738180
vt 0.649471 0.562330
vt 0.717823 0.608160
vt 0.754314 0.494501
vt 0.795788 0.582640
vt 0.569001 0.806388
vt 0.551609 0.804585
vt 0.788867 0.677620
vt 0.776267 0.704151
vt 0.735588 0.750044
vt 0.697790 0.776677
vt 0.596395 0.806493
vt 0.795787 0.645181
vt 0.762982 0.722240
vt 0.652817 0.794612
vt 0.770341 0.281323
vt 0.745899 0.319962
vt 0.677395 0.255108
vt 0.697002 0.228372
vt 0.793741 0.154467
vt 0.793741 0.181329
vt 0.728016 0.169217
vt 0.738201 0.139608
vt 0.675384 0.374242
vt 0.643144 0.378689
vt 0.608315 0.308382
vt 0.627940 0.299203
vt 0.719486 0.348273
vt 0.658283 0.276186
vt 0.583932 0.375150
vt 0.571857 0.319439
vt 0.701916 0.361871
vt 0.645303 0.287386
vt 0.785172 0.236097
vt 0.714255 0.198184
vt 0.499637 0.347929
vt 0.501857 0.332326
vt 0.791208 0.137098
vt 0.741137 0.125835
vt 0.591848 0.209583
vt 0.607418 0.191885
vt 0.647790 0.146283
vt 0.668329 0.123389
vt 0.534672 0.274981
vt 0.556148 0.250374
vt 0.582023 0.220788
vt 0.627092 0.169579
vt 0.495940 0.319418
vt 0.688141 0.101555
vt 0.696510 0.092384
vt 0.569123 0.235522
vt 0.626691 0.768525
vt 0.599872 0.776569
vt 0.605974 0.803321
vt 0.638567 0.796743
vt 0.771437 0.187076
vt 0.765316 0.214883
vt 0.790991 0.190666
vt 0.786341 0.221998
vt 0.438845 0.379441
vt 0.431772 0.396506
vt 0.417302 0.391432
vt 0.427766 0.380976
vt 0.416564 0.404604
vt 0.424700 0.413570
vt 0.482001 0.772381
vt 0.463927 0.751341
vt 0.491773 0.788652
vt 0.759147 0.067358
vt 0.774746 0.077616
vt 0.736907 0.048211
vt 0.763146 0.056905
vt 0.744405 0.040011
vt 0.746661 0.037544
vt 0.764916 0.053248
vt 0.471590 0.775200
vt 0.482017 0.791136
vt 0.478689 0.792197
vt 0.468022 0.776298
vt 0.777508 0.068121
vt 0.778687 0.065093
vt 0.456941 0.758520
vt 0.454897 0.760620
vt 0.478617 0.773195
vt 0.461588 0.753744
vt 0.475115 0.774162
vt 0.459259 0.756137
vt 0.760286 0.063990
vt 0.775511 0.074499
vt 0.761636 0.060476
vt 0.776453 0.071264
vt 0.488677 0.789334
vt 0.485350 0.790183
vt 0.739374 0.045513
vt 0.741871 0.042782
vt 0.550243 0.524871
vt 0.563974 0.513762
vt 0.489301 0.603439
vt 0.508308 0.572713
vt 0.640067 0.489924
vt 0.715257 0.475703
vt 0.458965 0.677653
vt 0.462373 0.663560
vt 0.579492 0.505511
vt 0.529863 0.545800
vt 0.473820 0.632923
vt 0.602951 0.494434
vt 0.627817 0.416434
vt 0.716186 0.456814
vt 0.408164 0.665305
vt 0.405776 0.647997
vt 0.506454 0.436428
vt 0.533177 0.423622
vt 0.433943 0.515638
vt 0.460533 0.477518
vt 0.404719 0.620674
vt 0.565649 0.416924
vt 0.488342 0.449857
vt 0.416057 0.560924
vt 0.495243 0.040707
vt 0.559672 0.106646
vt 0.535314 0.130022
vt 0.460446 0.070844
vt 0.626592 0.000376
vt 0.645281 0.054927
vt 0.615717 0.067782
vt 0.599956 0.001925
vt 0.416564 0.148817
vt 0.497956 0.185534
vt 0.491504 0.206339
vt 0.416690 0.181512
vt 0.516781 0.152077
vt 0.436118 0.101236
vt 0.485511 0.244114
vt 0.428519 0.239828
vt 0.507366 0.166584
vt 0.425098 0.120665
vt 0.537966 0.018728
vt 0.588154 0.084909
vt 0.482350 0.315312
vt 0.467180 0.319655
vt 0.644016 0.001669
vt 0.658910 0.050809
vt 0.451300 0.590296
vt 0.441891 0.619233
vt 0.407344 0.612872
vt 0.414492 0.572502
vt 0.596777 0.032848
vt 0.566908 0.044029
vt 0.592428 0.003712
vt 0.548713 0.015712
vt 0.445590 0.388363
vt 0.445590 0.403156
vt 0.436793 0.412988
vt 0.442398 0.733844
vt 0.425856 0.724525
vt 0.704245 0.013131
vt 0.715844 0.027770
vt 0.725903 0.022854
vt 0.729388 0.020764
vt 0.439865 0.744332
vt 0.438866 0.747929
vt 0.422676 0.737704
vt 0.423644 0.734347
vt 0.713457 0.009543
vt 0.716369 0.008100
vt 0.441677 0.737250
vt 0.440806 0.740778
vt 0.707282 0.012095
vt 0.719099 0.026334
vt 0.710421 0.010870
vt 0.722480 0.024676
vt 0.425261 0.727639
vt 0.424504 0.730989
vt 0.438434 0.586816
vt 0.431875 0.613711
vn 0.0000 0.0992 0.9951
vn -0.0004 -0.0601 0.9982
vn 0.6786 -0.1303 0.7228
vn 0.6703 0.0745 0.7383
vn 0.0000 0.4747 0.8801
vn 0.0000 0.3624 0.9320
vn 0.6026 0.3911 0.6956
vn 0.5464 0.5246 0.6528
vn 0.0000 -0.8961 0.4439
vn 0.0000 -0.9940 0.1088
vn 0.0690 -0.9959 0.0587
vn 0.2733 -0.9230 0.2709
vn 0.0000 0.8578 0.5139
vn 0.0000 0.6611 0.7503
vn 0.4429 0.7068 0.5516
vn 0.2748 0.8871 0.3707
vn 0.0010 -0.3425 0.9395
vn 0.6171 -0.4228 0.6636
vn 0.0000 0.2164 0.9763
vn 0.6451 0.2246 0.7303
vn 0.0000 0.5321 0.8466
vn 0.5249 0.5747 0.6278
vn 0.0017 -0.6602 0.7510
vn 0.4755 -0.7377 0.4791
vn 0.1027 -0.9944 -0.0253
vn 0.3421 -0.9383 -0.0504
vn 0.6791 0.7331 -0.0365
vn 0.4399 0.8972 -0.0395
vn 0.8303 -0.5561 -0.0367
vn 0.9772 -0.2091 -0.0371
vn 0.9716 0.2342 -0.0349
vn 0.9104 0.4122 -0.0366
vn 0.8541 0.5192 -0.0308
vn 0.5698 -0.8209 -0.0375
vn 0.9981 0.0504 -0.0345
vn 0.8123 0.5818 -0.0405
vn 0.6534 0.2126 -0.7265
vn 0.6076 0.3879 -0.6931
vn 0.5183 0.5429 -0.6608
vn 0.4364 0.6651 -0.6059
vn 0.3762 -0.7956 -0.4747
vn 0.5446 -0.5521 -0.6313
vn 0.6717 0.0276 -0.7403
vn 0.2305 -0.9175 -0.3241
vn 0.6503 -0.2258 -0.7253
vn 0.5481 0.5087 -0.6639
vn 0.0721 -0.9902 -0.1194
vn 0.2720 0.8560 -0.4397
vn 0.0000 0.0104 -0.9999
vn 0.0000 0.2182 -0.9759
vn 0.0000 0.5023 -0.8647
vn 0.0000 0.5163 -0.8564
vn 0.0000 -0.9071 -0.4209
vn 0.0000 -0.7819 -0.6234
vn 0.0000 -0.2514 -0.9679
vn 0.0000 0.4014 -0.9159
vn 0.0000 -0.9868 -0.1620
vn 0.0000 0.6177 -0.7864
vn 0.0000 0.8255 -0.5644
vn 0.0000 -0.5585 -0.8295
vn 0.7234 0.6086 0.3258
vn 0.8391 0.4200 0.3456
vn 0.9350 0.3535 -0.0286
vn 0.7581 0.6506 -0.0439
vn 0.8143 0.4131 -0.4077
vn 0.7203 0.5623 -0.4060
vn 0.0000 -0.9998 -0.0173
vn 0.3721 0.8218 0.4313
vn 0.0000 0.6962 0.7178
vn 0.4503 0.8920 -0.0397
vn 0.3525 0.8013 -0.4834
vn 0.0000 0.6601 -0.7512
vn 0.5904 0.3563 -0.7242
vn 0.0000 0.1064 -0.9943
vn 0.0000 0.1115 -0.9937
vn 0.5585 0.3148 -0.7674
vn 0.6229 0.3700 0.6892
vn 0.8071 0.5898 -0.0261
vn 0.8072 0.5898 -0.0213
vn 0.5897 0.3242 0.7396
vn 0.0000 0.1216 0.9926
vn 0.0000 0.1275 0.9918
vn 0.5858 0.3549 0.7286
vn 0.0000 0.1023 0.9948
vn 0.6037 0.3623 0.7100
vn 0.0000 0.1111 0.9938
vn 0.5541 0.3408 -0.7595
vn 0.8071 0.5898 -0.0259
vn 0.5716 0.3484 -0.7429
vn 0.8071 0.5898 -0.0260
vn 0.0000 0.0894 -0.9960
vn 0.0000 0.0971 -0.9952
vn -0.6703 0.0745 0.7383
vn -0.6808 -0.1408 0.7188
vn -0.5462 0.5246 0.6531
vn -0.6026 0.3911 0.6956
vn -0.2733 -0.9230 0.2709
vn -0.0690 -0.9959 0.0587
vn -0.2748 0.8871 0.3707
vn -0.4429 0.7068 0.5516
vn -0.6048 -0.4408 0.6633
vn -0.6451 0.2246 0.7303
vn -0.5259 0.5725 0.6290
vn -0.4716 -0.7447 0.4721
vn -0.3421 -0.9383 -0.0504
vn -0.1027 -0.9944 -0.0253
vn -0.4399 0.8972 -0.0395
vn -0.6791 0.7331 -0.0365
vn -0.9760 -0.2144 -0.0367
vn -0.8264 -0.5618 -0.0379
vn -0.9104 0.4122 -0.0366
vn -0.9716 0.2342 -0.0349
vn -0.8062 0.5914 -0.0132
vn -0.5653 -0.8238 -0.0414
vn -0.9981 0.0504 -0.0345
vn -0.8285 0.5579 -0.0471
vn -0.6076 0.3879 -0.6931
vn -0.6534 0.2126 -0.7265
vn -0.4364 0.6651 -0.6059
vn -0.5029 0.5415 -0.6737
vn -0.5446 -0.5521 -0.6313
vn -0.3762 -0.7956 -0.4747
vn -0.6717 0.0276 -0.7403
vn -0.2305 -0.9175 -0.3241
vn -0.6503 -0.2258 -0.7253
vn -0.5428 0.4941 -0.6792
vn -0.0721 -0.9902 -0.1194
vn -0.2720 0.8560 -0.4397
vn -0.7166 0.6094 0.3392
vn -0.8246 0.4345 0.3622
vn -0.8609 0.5086 0.0144
vn -0.8036 0.5921 -0.0593
vn -0.6942 0.5900 -0.4122
vn -0.7663 0.4517 -0.4568
vn -0.3721 0.8218 0.4313
vn -0.4503 0.8920 -0.0397
vn -0.3525 0.8013 -0.4834
vn -0.5904 0.3563 -0.7242
vn -0.5585 0.3148 -0.7674
vn -0.6229 0.3700 0.6892
vn -0.5897 0.3242 0.7396
vn -0.8072 0.5898 -0.0213
vn -0.8071 0.5898 -0.0261
vn -0.5858 0.3549 0.7286
vn -0.6037 0.3623 0.7100
vn -0.8071 0.5898 -0.0259
vn -0.5541 0.3408 -0.7595
vn -0.8071 0.5898 -0.0260
vn -0.5716 0.3484 -0.7429
vn -0.7320 0.5716 0.3707
s 1
f 99/1/1 100/2/2 6/3/3 5/4/4
f 96/5/5 97/6/6 3/7/7 32/8/8
f 103/9/9 104/10/10 10/11/11 9/12/12
f 93/13/13 94/14/14 2/15/15 1/16/16
f 100/2/2 101/17/17 7/18/18 6/3/3
f 97/6/6 98/19/19 4/20/20 3/7/7
f 94/14/14 95/21/21 31/22/22 2/15/15
f 101/17/17 102/23/23 8/24/24 7/18/18
f 98/19/19 99/1/1 5/4/4 4/20/20
f 95/21/21 96/5/5 32/8/8 31/22/22
f 102/23/23 103/9/9 9/12/12 8/24/24
f 9/12/12 10/11/11 20/25/25 19/26/26
f 1/16/16 2/15/15 12/27/27 11/28/28
f 6/3/3 7/18/18 17/29/29 16/30/30
f 3/7/7 4/20/20 14/31/31 13/32/32
f 2/15/15 31/22/22 33/33/33 12/27/27
f 7/18/18 8/24/24 18/34/34 17/29/29
f 4/20/20 5/4/4 15/35/35 14/31/31
f 8/24/24 9/12/12 19/26/26 18/34/34
f 5/4/4 6/3/3 16/30/30 15/35/35
f 32/8/8 3/7/7 13/32/32 34/36/36
f 13/37/32 14/38/31 24/39/37 23/40/38
f 12/41/27 33/42/33 35/43/39 22/44/40
f 17/45/29 18/46/34 28/47/41 27/48/42
f 14/38/31 15/49/35 25/50/43 24/39/37
f 18/46/34 19/51/26 29/52/44 28/47/41
f 15/49/35 16/53/30 26/54/45 25/50/43
f 34/55/36 13/37/32 23/40/38 36/56/46
f 19/51/26 20/57/25 30/58/47 29/52/44
f 11/59/28 12/41/27 22/44/40 21/60/48
f 16/53/30 17/45/29 27/48/42 26/54/45
f 24/39/37 25/50/43 111/61/49 110/62/50
f 35/43/39 36/56/46 108/63/51 107/64/52
f 28/47/41 29/52/44 115/65/53 114/66/54
f 25/50/43 26/54/45 112/67/55 111/61/49
f 36/56/46 23/40/38 109/68/56 108/63/51
f 29/52/44 30/58/47 116/69/57 115/65/53
f 21/60/48 22/44/40 106/70/58 105/71/59
f 26/54/45 27/48/42 113/72/60 112/67/55
f 23/40/38 24/39/37 110/62/50 109/68/56
f 22/44/40 35/43/39 107/64/52 106/70/58
f 27/48/42 28/47/41 114/66/54 113/72/60
f 140/73/61 141/74/62 31/22/22 32/8/8
f 141/74/62 142/75/63 33/33/33 31/22/22
f 143/76/64 140/73/61 32/8/8 34/36/36
f 144/77/65 145/78/66 36/56/46 35/43/39
f 142/79/63 144/77/65 35/43/39 33/42/33
f 145/78/66 143/80/64 34/55/36 36/56/46
f 104/81/10 117/82/67 20/83/25 10/84/11
f 30/85/47 20/83/25 117/82/67 116/86/57
f 93/13/13 1/16/16 37/87/68 118/88/69
f 1/16/16 11/28/28 38/89/70 37/87/68
f 11/59/28 21/60/48 39/90/71 38/91/70
f 21/60/48 105/71/59 119/92/72 39/90/71
f 43/93/73 130/94/74 124/95/75 42/96/76
f 46/97/77 51/98/78 41/99/79 40/100/80
f 51/101/78 43/93/73 42/96/76 41/102/79
f 137/103/81 46/97/77 40/100/80 123/104/82
f 118/88/69 37/87/68 48/105/83 139/106/84
f 139/106/84 48/105/83 47/107/85 138/108/86
f 138/108/86 47/107/85 46/97/77 137/103/81
f 38/91/70 39/90/71 45/109/87 49/110/88
f 49/110/88 45/109/87 44/111/89 50/112/90
f 50/112/90 44/111/89 43/93/73 51/101/78
f 37/87/68 38/89/70 49/113/88 48/105/83
f 48/105/83 49/113/88 50/114/90 47/107/85
f 47/107/85 50/114/90 51/98/78 46/97/77
f 39/90/71 119/92/72 128/115/91 45/109/87
f 45/109/87 128/115/91 129/116/92 44/111/89
f 44/111/89 129/116/92 130/94/74 43/93/73
f 99/1/1 56/117/93 57/118/94 100/2/2
f 96/5/5 85/119/95 54/120/96 97/6/6
f 103/9/9 60/121/97 61/122/98 104/10/10
f 93/13/13 52/123/99 53/124/100 94/14/14
f 100/2/2 57/118/94 58/125/101 101/17/17
f 97/6/6 54/120/96 55/126/102 98/19/19
f 94/14/14 53/124/100 84/127/103 95/21/21
f 101/17/17 58/125/101 59/128/104 102/23/23
f 98/19/19 55/126/102 56/117/93 99/1/1
f 95/21/21 84/127/103 85/119/95 96/5/5
f 102/23/23 59/128/104 60/121/97 103/9/9
f 60/121/97 70/129/105 71/130/106 61/122/98
f 52/123/99 62/131/107 63/132/108 53/124/100
f 57/118/94 67/133/109 68/134/110 58/125/101
f 54/120/96 64/135/111 65/136/112 55/126/102
f 53/124/100 63/132/108 86/137/113 84/127/103
f 58/125/101 68/134/110 69/138/114 59/128/104
f 55/126/102 65/136/112 66/139/115 56/117/93
f 59/128/104 69/138/114 70/129/105 60/121/97
f 56/117/93 66/139/115 67/133/109 57/118/94
f 85/119/95 87/140/116 64/135/111 54/120/96
f 64/141/111 74/142/117 75/143/118 65/144/112
f 63/145/108 73/146/119 88/147/120 86/148/113
f 68/149/110 78/150/121 79/151/122 69/152/114
f 65/144/112 75/143/118 76/153/123 66/154/115
f 69/152/114 79/151/122 80/155/124 70/156/105
f 66/154/115 76/153/123 77/157/125 67/158/109
f 87/159/116 89/160/126 74/142/117 64/141/111
f 70/156/105 80/155/124 81/161/127 71/162/106
f 62/163/107 72/164/128 73/146/119 63/145/108
f 67/158/109 77/157/125 78/150/121 68/149/110
f 75/143/118 110/62/50 111/61/49 76/153/123
f 88/147/120 107/64/52 108/63/51 89/160/126
f 79/151/122 114/66/54 115/65/53 80/155/124
f 76/153/123 111/61/49 112/67/55 77/157/125
f 89/160/126 108/63/51 109/68/56 74/142/117
f 80/155/124 115/65/53 116/69/57 81/161/127
f 72/164/128 105/71/59 106/70/58 73/146/119
f 77/157/125 112/67/55 113/72/60 78/150/121
f 74/142/117 109/68/56 110/62/50 75/143/118
f 73/146/119 106/70/58 107/64/52 88/147/120
f 78/150/121 113/72/60 114/66/54 79/151/122
f 146/165/129 85/119/95 84/127/103 147/166/130
f 147/166/130 84/127/103 86/137/113 148/167/131
f 149/168/132 87/140/116 85/119/95 146/165/129
f 150/169/133 88/147/120 89/160/126 151/170/134
f 148/171/131 86/148/113 88/147/120 150/169/133
f 151/170/134 89/160/126 87/159/116 149/172/132
f 104/81/10 61/173/98 71/174/106 117/82/67
f 81/175/127 116/86/57 117/82/67 71/174/106
f 93/13/13 118/88/69 90/176/135 52/123/99
f 52/123/99 90/176/135 91/177/136 62/131/107
f 62/163/107 91/178/136 92/179/137 72/164/128
f 72/164/128 92/179/137 119/92/72 105/71/59
f 125/180/138 122/181/139 124/95/75 130/94/74
f 131/182/140 120/183/141 121/184/142 136/185/143
f 136/186/143 121/187/142 122/181/139 125/180/138
f 137/103/81 123/104/82 120/183/141 131/182/140
f 118/88/69 139/106/84 133/188/144 90/176/135
f 139/106/84 138/108/86 132/189/145 133/188/144
f 138/108/86 137/103/81 131/182/140 132/189/145
f 91/178/136 134/190/146 127/191/147 92/179/137
f 134/190/146 135/192/148 126/193/149 127/191/147
f 135/192/148 136/186/143 125/180/138 126/193/149
f 90/176/135 133/188/144 134/194/146 91/177/136
f 133/188/144 132/189/145 135/195/148 134/194/146
f 132/189/145 131/182/140 136/185/143 135/195/148
f 92/179/137 127/191/147 128/115/91 119/92/72
f 127/191/147 126/193/149 129/116/92 128/115/91
f 126/193/149 125/180/138 130/94/74 129/116/92
f 83/196/150 146/165/129 147/166/130 82/197/150
