# Blender v2.81 (sub 16) OBJ File: 'LEGOS.blend'
# www.blender.org
mtllib LEGO_1Block.mtl
o LEGO'S.755
v 3.900003 -5.083438 3.899967
v -3.899996 -5.083438 3.899967
v 3.900003 4.516562 3.899969
v 3.900003 -5.083437 -3.900032
v 2.400003 -5.083438 2.399967
v -2.399998 -5.083438 2.399967
v 2.400003 -5.083437 -2.400032
v -2.399998 -5.083437 -2.400032
v -3.899996 -5.083437 -3.900032
v -3.899996 4.516563 -3.900032
v 3.900003 4.516563 -3.900032
v -3.899996 4.516562 3.899969
v 2.400003 3.516562 2.399969
v -2.399998 3.516562 2.399969
v 2.400003 -5.083438 2.399967
v 2.400003 3.516563 -2.400032
v 0.312576 3.516563 1.772623
v 0.615627 3.516563 1.691416
v 0.900003 3.516563 1.558817
v 1.157009 3.516563 1.378849
v 1.378885 3.516563 1.156988
v 1.558842 3.516563 0.899969
v 1.691458 3.516563 0.615606
v 1.772659 3.516563 0.312536
v 1.800003 3.516563 -0.000031
v 1.772659 3.516563 -0.312599
v 1.691458 3.516563 -0.615669
v 1.558842 3.516563 -0.900032
v 1.378885 3.516563 -1.157051
v 1.157009 3.516563 -1.378910
v 0.900003 3.516563 -1.558876
v 0.615627 3.516563 -1.691475
v 0.312576 3.516563 -1.772682
v 0.000004 3.516563 -1.800030
v -2.399998 3.516563 -2.400032
v -0.312571 3.516563 -1.772682
v -0.615622 3.516563 -1.691475
v -0.899998 3.516563 -1.558876
v -1.157003 3.516563 -1.378910
v -1.378880 3.516563 -1.157051
v -1.558834 3.516563 -0.900032
v -1.691452 3.516563 -0.615669
v -1.772654 3.516563 -0.312599
v -1.799997 3.516563 -0.000031
v -1.772654 3.516563 0.312536
v -1.691452 3.516563 0.615606
v -1.558834 3.516563 0.899969
v -1.378880 3.516563 1.156988
v -1.157003 3.516563 1.378849
v -0.899998 3.516563 1.558817
v -0.615622 3.516563 1.691416
v -0.312571 3.516563 1.772623
v 0.000004 3.516563 1.799971
v -2.399998 -5.083437 -2.400032
v 2.400003 -5.083437 -2.400032
v -2.399998 -5.083438 2.399967
v 1.772659 4.036569 -0.312599
v 1.800003 4.036569 -0.000031
v 1.772659 3.516563 -0.312599
v 0.000004 4.036569 -0.000031
v 1.691458 4.036569 -0.615669
v 1.691458 3.516563 -0.615669
v 1.558842 4.036569 -0.900032
v 1.558842 3.516563 -0.900032
v 1.378885 4.036569 -1.157051
v 1.378885 3.516563 -1.157051
v 1.157009 4.036569 -1.378910
v 1.157009 3.516563 -1.378910
v 0.900003 4.036569 -1.558876
v 0.900003 3.516563 -1.558876
v 0.615627 4.036569 -1.691475
v 0.615627 3.516563 -1.691475
v 0.312576 4.036569 -1.772682
v 0.312576 3.516563 -1.772682
v 0.000004 4.036569 -1.800030
v 0.000004 3.516563 -1.800030
v -0.312571 4.036569 -1.772682
v -0.312571 3.516563 -1.772682
v -0.615622 4.036569 -1.691475
v -0.615622 3.516563 -1.691475
v -0.899998 4.036569 -1.558876
v -0.899998 3.516563 -1.558876
v -1.157003 4.036569 -1.378910
v -1.157003 3.516563 -1.378910
v -1.378880 4.036569 -1.157051
v -1.378880 3.516563 -1.157051
v -1.558834 4.036569 -0.900032
v -1.558834 3.516563 -0.900032
v -1.691452 4.036569 -0.615669
v -1.691452 3.516563 -0.615669
v -1.772654 4.036569 -0.312599
v -1.772654 3.516563 -0.312599
v -1.799997 4.036569 -0.000031
v -1.799997 3.516563 -0.000031
v -1.772654 4.036569 0.312536
v -1.772654 3.516563 0.312536
v -1.691452 4.036569 0.615606
v -1.691452 3.516563 0.615606
v -1.558834 4.036569 0.899969
v -1.558834 3.516563 0.899969
v -1.378880 4.036569 1.156988
v -1.378880 3.516563 1.156988
v -1.157003 4.036569 1.378849
v -1.157003 3.516563 1.378849
v -0.899998 4.036569 1.558817
v -0.899998 3.516563 1.558817
v -0.615622 4.036569 1.691416
v -0.615622 3.516563 1.691416
v -0.312571 4.036569 1.772623
v -0.312571 3.516563 1.772623
v 0.000004 4.036569 1.799971
v 0.000004 3.516563 1.799971
v 0.312576 4.036569 1.772623
v 0.312576 3.516563 1.772623
v 0.615627 4.036569 1.691416
v 0.615627 3.516563 1.691416
v 0.900003 4.036569 1.558817
v 0.900003 3.516563 1.558817
v 1.157009 4.036569 1.378849
v 1.157009 3.516563 1.378849
v 1.378885 4.036569 1.156988
v 1.378885 3.516563 1.156988
v 1.558842 4.036569 0.899969
v 1.558842 3.516563 0.899969
v 1.691458 4.036569 0.615606
v 1.691458 3.516563 0.615606
v 1.772659 4.036569 0.312536
v 1.772659 3.516563 0.312536
v 1.800003 3.516563 -0.000031
v 2.363552 4.516563 -0.416786
v 0.000004 4.516563 -0.000031
v 2.400003 4.516563 -0.000031
v 2.255276 4.516563 -0.820881
v 2.078470 4.516563 -1.200031
v 1.838505 4.516563 -1.542721
v 1.542704 4.516563 -1.838539
v 1.200003 4.516563 -2.078491
v 0.820852 4.516563 -2.255291
v 0.416752 4.516563 -2.363567
v 0.000004 4.516563 -2.400032
v -0.416744 4.516563 -2.363567
v -0.820847 4.516563 -2.255291
v -1.199997 4.516563 -2.078491
v -1.542698 4.516563 -1.838539
v -1.838497 4.516563 -1.542721
v -2.078465 4.516563 -1.200031
v -2.255270 4.516563 -0.820881
v -2.363546 4.516563 -0.416786
v -2.399998 4.516563 -0.000031
v -2.363546 4.516563 0.416723
v -2.255270 4.516563 0.820820
v -2.078465 4.516562 1.199970
v -1.838497 4.516562 1.542662
v -1.542698 4.516562 1.838476
v -1.199997 4.516562 2.078430
v -0.820847 4.516562 2.255232
v -0.416744 4.516562 2.363508
v 0.000004 4.516562 2.399969
v 0.416752 4.516562 2.363508
v 0.820852 4.516562 2.255232
v 1.200003 4.516562 2.078430
v 1.542704 4.516562 1.838476
v 1.838505 4.516562 1.542662
v 2.078470 4.516562 1.199970
v 2.255276 4.516563 0.820820
v 2.363552 4.516563 0.416723
v 2.363552 4.516563 -0.416786
v 2.400003 4.516563 -0.000031
v 2.363552 6.216563 -0.416786
v 2.255276 4.516563 -0.820881
v 2.255276 6.216563 -0.820881
v 2.078470 4.516563 -1.200031
v 2.078470 6.216563 -1.200031
v 1.838505 4.516563 -1.542721
v 1.838505 6.216563 -1.542721
v 1.542704 4.516563 -1.838539
v 1.542704 6.216563 -1.838539
v 1.200003 4.516563 -2.078491
v 1.200003 6.216563 -2.078491
v 0.820852 4.516563 -2.255291
v 0.820852 6.216563 -2.255291
v 0.416752 4.516563 -2.363567
v 0.416752 6.216563 -2.363567
v 0.000004 4.516563 -2.400032
v 0.000004 6.216563 -2.400032
v -0.416744 4.516563 -2.363567
v -0.416744 6.216563 -2.363567
v -0.820847 4.516563 -2.255291
v -0.820847 6.216563 -2.255291
v -1.199997 4.516563 -2.078491
v -1.199997 6.216563 -2.078491
v -1.542698 4.516563 -1.838539
v -1.542698 6.216563 -1.838539
v -1.838497 4.516563 -1.542721
v -1.838497 6.216563 -1.542721
v -2.078465 4.516563 -1.200031
v -2.078465 6.216563 -1.200031
v -2.255270 4.516563 -0.820881
v -2.255270 6.216563 -0.820881
v -2.363546 4.516563 -0.416786
v -2.363546 6.216563 -0.416786
v -2.399998 4.516563 -0.000031
v -2.399998 6.216563 -0.000031
v -2.363546 4.516563 0.416723
v -2.363546 6.216563 0.416723
v -2.255270 4.516563 0.820820
v -2.255270 6.216563 0.820820
v -2.078465 4.516562 1.199970
v -2.078465 6.216563 1.199970
v -1.838497 4.516562 1.542662
v -1.838497 6.216563 1.542662
v -1.542698 4.516562 1.838476
v -1.542698 6.216563 1.838476
v -1.199997 4.516562 2.078430
v -1.199997 6.216563 2.078430
v -0.820847 4.516562 2.255232
v -0.820847 6.216562 2.255232
v -0.416744 4.516562 2.363508
v -0.416744 6.216562 2.363508
v 0.000004 4.516562 2.399969
v 0.000004 6.216562 2.399969
v 0.416752 4.516562 2.363508
v 0.416752 6.216562 2.363508
v 0.820852 4.516562 2.255232
v 0.820852 6.216562 2.255232
v 1.200003 4.516562 2.078430
v 1.200003 6.216563 2.078430
v 1.542704 4.516562 1.838476
v 1.542704 6.216563 1.838476
v 1.838505 4.516562 1.542662
v 1.838505 6.216563 1.542662
v 2.078470 4.516562 1.199970
v 2.078470 6.216563 1.199970
v 2.255276 4.516563 0.820820
v 2.255276 6.216563 0.820820
v 2.363552 4.516563 0.416723
v 2.363552 6.216563 0.416723
v 2.400003 6.216563 -0.000031
v 2.363552 6.216563 -0.416786
v 2.400003 6.216563 -0.000031
v 0.000004 6.216563 -0.000031
v 2.255276 6.216563 -0.820881
v 2.078470 6.216563 -1.200031
v 1.838505 6.216563 -1.542721
v 1.542704 6.216563 -1.838539
v 1.200003 6.216563 -2.078491
v 0.820852 6.216563 -2.255291
v 0.416752 6.216563 -2.363567
v 0.000004 6.216563 -2.400032
v -0.416744 6.216563 -2.363567
v -0.820847 6.216563 -2.255291
v -1.199997 6.216563 -2.078491
v -1.542698 6.216563 -1.838539
v -1.838497 6.216563 -1.542721
v -2.078465 6.216563 -1.200031
v -2.255270 6.216563 -0.820881
v -2.363546 6.216563 -0.416786
v -2.399998 6.216563 -0.000031
v -2.363546 6.216563 0.416723
v -2.255270 6.216563 0.820820
v -2.078465 6.216563 1.199970
v -1.838497 6.216563 1.542662
v -1.542698 6.216563 1.838476
v -1.199997 6.216563 2.078430
v -0.820847 6.216562 2.255232
v -0.416744 6.216562 2.363508
v 0.000004 6.216562 2.399969
v 0.416752 6.216562 2.363508
v 0.820852 6.216562 2.255232
v 1.200003 6.216563 2.078430
v 1.542704 6.216563 1.838476
v 1.838505 6.216563 1.542662
v 2.078470 6.216563 1.199970
v 2.255276 6.216563 0.820820
v 2.363552 6.216563 0.416723
vt 1.000000 1.000000
vt 0.000000 1.000000
vt 0.192308 0.807692
vt 0.807692 0.807692
vt 1.000000 0.000000
vt 1.000000 1.000000
vt 0.000000 1.000000
vt 0.000000 0.000000
vt 1.000000 0.000000
vt 1.000000 1.000000
vt 0.000000 1.000000
vt 0.000000 0.000000
vt 0.807692 0.192308
vt 0.192308 0.192308
vt 0.000000 0.000000
vt 1.000000 0.000000
vt 1.000000 1.000000
vt 0.000000 1.000000
vt 0.000000 0.000000
vt 1.000000 0.000000
vt 1.000000 1.000000
vt 0.000000 1.000000
vt 1.000000 0.000000
vt 0.000000 0.000000
vt 1.000000 0.000000
vt 0.000000 0.000000
vt 0.500000 0.125000
vt 0.565118 0.130697
vt 1.000000 1.000000
vt 1.000000 0.104167
vt 0.000000 0.104167
vt 0.000000 1.000000
vt 1.000000 1.000000
vt 1.000000 0.104167
vt 0.000000 0.104167
vt 0.000000 1.000000
vt 0.875000 0.500000
vt 0.869303 0.565118
vt 0.628258 0.147615
vt 0.687500 0.175241
vt 0.741045 0.212733
vt 0.787267 0.258955
vt 0.824760 0.312500
vt 0.852385 0.371742
vt 0.869303 0.434882
vt 0.852385 0.628258
vt 0.824760 0.687500
vt 0.787267 0.741045
vt 0.741045 0.787267
vt 0.687500 0.824760
vt 0.628258 0.852385
vt 0.565118 0.869303
vt 0.500000 0.875000
vt 0.000000 1.000000
vt 0.434882 0.869303
vt 0.371742 0.852385
vt 0.312500 0.824760
vt 0.258955 0.787267
vt 0.212733 0.741045
vt 0.175240 0.687500
vt 0.147615 0.628258
vt 0.130697 0.565118
vt 0.125000 0.500000
vt 0.130697 0.434882
vt 0.147615 0.371742
vt 0.175240 0.312500
vt 0.212733 0.258955
vt 0.258955 0.212733
vt 0.312500 0.175241
vt 0.371742 0.147615
vt 0.434882 0.130697
vt 1.000000 1.000000
vt 1.000000 0.104167
vt 0.000000 0.104167
vt 0.000000 1.000000
vt 1.000000 1.000000
vt 1.000000 0.104167
vt 0.000000 0.104167
vt 0.992404 0.586824
vt 1.000000 0.500000
vt 0.500000 0.500000
vt 0.027778 1.000000
vt 0.027778 0.694115
vt 0.000000 0.694115
vt 0.000000 1.000000
vt 0.055556 1.000000
vt 0.055556 0.694115
vt 0.969846 0.671010
vt 0.083333 1.000000
vt 0.083333 0.694115
vt 0.933013 0.750000
vt 0.111111 1.000000
vt 0.111111 0.694115
vt 0.883022 0.821394
vt 0.138889 1.000000
vt 0.138889 0.694115
vt 0.821394 0.883022
vt 0.166667 1.000000
vt 0.166667 0.694115
vt 0.750000 0.933013
vt 0.194444 1.000000
vt 0.194444 0.694115
vt 0.671010 0.969846
vt 0.222222 1.000000
vt 0.222222 0.694115
vt 0.586824 0.992404
vt 0.250000 1.000000
vt 0.250000 0.694115
vt 0.500000 1.000000
vt 0.277778 1.000000
vt 0.277778 0.694115
vt 0.413176 0.992404
vt 0.305556 1.000000
vt 0.305556 0.694115
vt 0.328990 0.969846
vt 0.333333 1.000000
vt 0.333333 0.694115
vt 0.250000 0.933013
vt 0.361111 1.000000
vt 0.361111 0.694115
vt 0.178606 0.883022
vt 0.388889 1.000000
vt 0.388889 0.694115
vt 0.116978 0.821394
vt 0.416667 1.000000
vt 0.416667 0.694115
vt 0.066987 0.750000
vt 0.444444 1.000000
vt 0.444444 0.694115
vt 0.030154 0.671010
vt 0.472222 1.000000
vt 0.472222 0.694115
vt 0.007596 0.586824
vt 0.500000 1.000000
vt 0.500000 0.694115
vt 0.000000 0.500000
vt 0.527778 1.000000
vt 0.527778 0.694115
vt 0.007596 0.413176
vt 0.555556 1.000000
vt 0.555556 0.694115
vt 0.030154 0.328990
vt 0.583333 1.000000
vt 0.583333 0.694115
vt 0.066987 0.250000
vt 0.611111 1.000000
vt 0.611111 0.694115
vt 0.116978 0.178606
vt 0.638889 1.000000
vt 0.638889 0.694115
vt 0.178606 0.116978
vt 0.666667 1.000000
vt 0.666667 0.694115
vt 0.250000 0.066987
vt 0.694444 1.000000
vt 0.694444 0.694115
vt 0.328990 0.030154
vt 0.722222 1.000000
vt 0.722222 0.694115
vt 0.413176 0.007596
vt 0.750000 1.000000
vt 0.750000 0.694115
vt 0.500000 0.000000
vt 0.777778 1.000000
vt 0.777778 0.694115
vt 0.586824 0.007596
vt 0.805556 1.000000
vt 0.805556 0.694115
vt 0.671010 0.030154
vt 0.833333 1.000000
vt 0.833333 0.694115
vt 0.750000 0.066987
vt 0.861111 1.000000
vt 0.861111 0.694115
vt 0.821394 0.116978
vt 0.888889 1.000000
vt 0.888889 0.694115
vt 0.883022 0.178606
vt 0.916667 1.000000
vt 0.916667 0.694115
vt 0.933013 0.250000
vt 0.944444 1.000000
vt 0.944444 0.694115
vt 0.969846 0.328990
vt 0.972222 1.000000
vt 0.972222 0.694115
vt 0.992404 0.413176
vt 1.000000 1.000000
vt 1.000000 0.694115
vt 0.030154 0.671010
vt 0.007596 0.586824
vt 0.500000 0.500000
vt 0.000000 0.500000
vt 0.066987 0.750000
vt 0.116978 0.821394
vt 0.178606 0.883022
vt 0.250000 0.933013
vt 0.328990 0.969846
vt 0.413176 0.992404
vt 0.500000 1.000000
vt 0.586824 0.992404
vt 0.671010 0.969846
vt 0.750000 0.933013
vt 0.821394 0.883022
vt 0.883022 0.821394
vt 0.933013 0.750000
vt 0.969846 0.671010
vt 0.992404 0.586824
vt 1.000000 0.500000
vt 0.992404 0.413176
vt 0.969846 0.328990
vt 0.933013 0.250000
vt 0.883022 0.178606
vt 0.821394 0.116978
vt 0.750000 0.066987
vt 0.671010 0.030154
vt 0.586824 0.007596
vt 0.500000 0.000000
vt 0.413176 0.007596
vt 0.328990 0.030154
vt 0.250000 0.066987
vt 0.178606 0.116978
vt 0.116978 0.178606
vt 0.066987 0.250000
vt 0.030154 0.328990
vt 0.007596 0.413176
vt 0.027778 0.000000
vt 0.027778 1.000000
vt 0.000000 1.000000
vt 0.000000 0.000000
vt 0.055556 0.000000
vt 0.055556 1.000000
vt 0.083333 0.000000
vt 0.083333 1.000000
vt 0.111111 0.000000
vt 0.111111 1.000000
vt 0.138889 0.000000
vt 0.138889 1.000000
vt 0.166667 0.000000
vt 0.166667 1.000000
vt 0.194444 0.000000
vt 0.194444 1.000000
vt 0.222222 0.000000
vt 0.222222 1.000000
vt 0.250000 0.000000
vt 0.250000 1.000000
vt 0.277778 0.000000
vt 0.277778 1.000000
vt 0.305556 0.000000
vt 0.305556 1.000000
vt 0.333333 0.000000
vt 0.333333 1.000000
vt 0.361111 0.000000
vt 0.361111 1.000000
vt 0.388889 0.000000
vt 0.388889 1.000000
vt 0.416667 0.000000
vt 0.416667 1.000000
vt 0.444444 0.000000
vt 0.444444 1.000000
vt 0.472222 0.000000
vt 0.472222 1.000000
vt 0.500000 0.000000
vt 0.500000 1.000000
vt 0.527778 0.000000
vt 0.527778 1.000000
vt 0.555556 0.000000
vt 0.555556 1.000000
vt 0.583333 0.000000
vt 0.583333 1.000000
vt 0.611111 0.000000
vt 0.611111 1.000000
vt 0.638889 0.000000
vt 0.638889 1.000000
vt 0.666667 0.000000
vt 0.666667 1.000000
vt 0.694444 0.000000
vt 0.694444 1.000000
vt 0.722222 0.000000
vt 0.722222 1.000000
vt 0.750000 0.000000
vt 0.750000 1.000000
vt 0.777778 0.000000
vt 0.777778 1.000000
vt 0.805556 0.000000
vt 0.805556 1.000000
vt 0.833333 0.000000
vt 0.833333 1.000000
vt 0.861111 0.000000
vt 0.861111 1.000000
vt 0.888889 0.000000
vt 0.888889 1.000000
vt 0.916667 0.000000
vt 0.916667 1.000000
vt 0.944444 0.000000
vt 0.944444 1.000000
vt 0.972222 0.000000
vt 0.972222 1.000000
vt 1.000000 0.000000
vt 1.000000 1.000000
vt 0.992404 0.586824
vt 0.500000 0.500000
vt 1.000000 0.500000
vt 0.969846 0.671010
vt 0.933013 0.750000
vt 0.883022 0.821394
vt 0.821394 0.883022
vt 0.750000 0.933013
vt 0.671010 0.969846
vt 0.586824 0.992404
vt 0.500000 1.000000
vt 0.413176 0.992404
vt 0.328990 0.969846
vt 0.250000 0.933013
vt 0.178606 0.883022
vt 0.116978 0.821394
vt 0.066987 0.750000
vt 0.030154 0.671010
vt 0.007596 0.586824
vt 0.000000 0.500000
vt 0.007596 0.413176
vt 0.030154 0.328990
vt 0.066987 0.250000
vt 0.116978 0.178606
vt 0.178606 0.116978
vt 0.250000 0.066987
vt 0.328990 0.030154
vt 0.413176 0.007596
vt 0.500000 0.000000
vt 0.586824 0.007596
vt 0.671010 0.030154
vt 0.750000 0.066987
vt 0.821394 0.116978
vt 0.883022 0.178606
vt 0.933013 0.250000
vt 0.969846 0.328990
vt 0.992404 0.413176
vn 0.0000 -1.0000 0.0000
vn 0.0000 -0.0000 1.0000
vn 1.0000 -0.0000 0.0000
vn 0.0000 0.0000 -1.0000
vn -1.0000 0.0000 0.0000
vn 0.0000 1.0000 0.0000
vn -0.9962 0.0000 0.0871
vn -0.9659 0.0000 0.2588
vn -0.9063 0.0000 0.4227
vn -0.8192 0.0000 0.5736
vn -0.7071 0.0000 0.7071
vn -0.5736 0.0000 0.8191
vn -0.4226 0.0000 0.9063
vn -0.2588 0.0000 0.9659
vn -0.0872 0.0000 0.9962
vn 0.0872 0.0000 0.9962
vn 0.2588 0.0000 0.9659
vn 0.4226 0.0000 0.9063
vn 0.5736 0.0000 0.8191
vn 0.7071 0.0000 0.7071
vn 0.8192 0.0000 0.5736
vn 0.9063 0.0000 0.4227
vn 0.9659 0.0000 0.2588
vn 0.9962 0.0000 0.0871
vn 0.9962 0.0000 -0.0871
vn 0.9659 0.0000 -0.2588
vn 0.9063 0.0000 -0.4227
vn 0.8192 0.0000 -0.5736
vn 0.7071 0.0000 -0.7071
vn 0.5736 0.0000 -0.8191
vn 0.4226 0.0000 -0.9063
vn 0.2588 0.0000 -0.9659
vn 0.0872 0.0000 -0.9962
vn -0.0872 0.0000 -0.9962
vn -0.2588 0.0000 -0.9659
vn -0.4226 0.0000 -0.9063
vn -0.5736 0.0000 -0.8191
vn -0.7071 0.0000 -0.7071
vn -0.8192 0.0000 -0.5736
vn -0.9063 0.0000 -0.4227
vn -0.9659 0.0000 -0.2588
vn -0.9962 0.0000 -0.0871
vn 0.9063 0.0000 -0.4226
vn 0.8191 0.0000 -0.5736
vn 0.5736 0.0000 -0.8192
vn -0.5736 0.0000 -0.8192
vn -0.8191 0.0000 -0.5736
vn -0.9063 0.0000 -0.4226
vn -0.9063 0.0000 0.4226
vn -0.8191 0.0000 0.5736
vn -0.5736 0.0000 0.8192
vn 0.5736 0.0000 0.8192
vn 0.8191 0.0000 0.5736
vn 0.9063 0.0000 0.4226
usemtl Yellow
s off
f 1/1/1 2/2/1 6/3/1 5/4/1
f 1/5/2 3/6/2 12/7/2 2/8/2
f 4/9/3 11/10/3 3/11/3 1/12/3
f 4/9/1 1/1/1 5/4/1 7/13/1
f 4/9/1 7/13/1 8/14/1 9/15/1
f 8/14/1 6/3/1 2/2/1 9/15/1
f 9/16/4 10/17/4 11/18/4 4/19/4
f 2/20/5 12/21/5 10/22/5 9/15/5
f 3/23/6 11/10/6 10/22/6 12/24/6
f 13/25/1 14/26/1 53/27/1 17/28/1
f 13/29/4 15/30/4 56/31/4 14/32/4
f 16/33/5 55/34/5 15/35/5 13/36/5
f 16/33/1 13/25/1 25/37/1 26/38/1
f 13/25/1 17/28/1 18/39/1
f 13/25/1 18/39/1 19/40/1
f 13/25/1 19/40/1 20/41/1
f 13/25/1 20/41/1 21/42/1
f 13/25/1 21/42/1 22/43/1
f 13/25/1 22/43/1 23/44/1
f 13/25/1 23/44/1 24/45/1
f 13/25/1 24/45/1 25/37/1
f 16/33/1 26/38/1 27/46/1
f 16/33/1 27/46/1 28/47/1
f 16/33/1 28/47/1 29/48/1
f 16/33/1 29/48/1 30/49/1
f 16/33/1 30/49/1 31/50/1
f 16/33/1 31/50/1 32/51/1
f 16/33/1 32/51/1 33/52/1
f 33/52/1 34/53/1 35/54/1 16/33/1
f 34/53/1 36/55/1 35/54/1
f 36/55/1 37/56/1 35/54/1
f 37/56/1 38/57/1 35/54/1
f 38/57/1 39/58/1 35/54/1
f 39/58/1 40/59/1 35/54/1
f 40/59/1 41/60/1 35/54/1
f 41/60/1 42/61/1 35/54/1
f 42/61/1 43/62/1 35/54/1
f 43/62/1 44/63/1 14/26/1 35/54/1
f 44/63/1 45/64/1 14/26/1
f 45/64/1 46/65/1 14/26/1
f 46/65/1 47/66/1 14/26/1
f 47/66/1 48/67/1 14/26/1
f 48/67/1 49/68/1 14/26/1
f 49/68/1 50/69/1 14/26/1
f 50/69/1 51/70/1 14/26/1
f 51/70/1 52/71/1 14/26/1
f 52/71/1 53/27/1 14/26/1
f 35/72/2 54/73/2 55/74/2 16/75/2
f 14/76/3 56/77/3 54/78/3 35/54/3
f 57/79/1 58/80/1 60/81/1
f 57/82/7 59/83/7 129/84/7 58/85/7
f 61/86/8 62/87/8 59/83/8 57/82/8
f 61/88/1 57/79/1 60/81/1
f 63/89/9 64/90/9 62/87/9 61/86/9
f 63/91/1 61/88/1 60/81/1
f 65/92/10 66/93/10 64/90/10 63/89/10
f 65/94/1 63/91/1 60/81/1
f 67/95/11 68/96/11 66/93/11 65/92/11
f 67/97/1 65/94/1 60/81/1
f 69/98/12 70/99/12 68/96/12 67/95/12
f 69/100/1 67/97/1 60/81/1
f 71/101/13 72/102/13 70/99/13 69/98/13
f 71/103/1 69/100/1 60/81/1
f 73/104/14 74/105/14 72/102/14 71/101/14
f 73/106/1 71/103/1 60/81/1
f 75/107/15 76/108/15 74/105/15 73/104/15
f 75/109/1 73/106/1 60/81/1
f 77/110/16 78/111/16 76/108/16 75/107/16
f 77/112/1 75/109/1 60/81/1
f 79/113/17 80/114/17 78/111/17 77/110/17
f 79/115/1 77/112/1 60/81/1
f 81/116/18 82/117/18 80/114/18 79/113/18
f 81/118/1 79/115/1 60/81/1
f 83/119/19 84/120/19 82/117/19 81/116/19
f 83/121/1 81/118/1 60/81/1
f 85/122/20 86/123/20 84/120/20 83/119/20
f 85/124/1 83/121/1 60/81/1
f 87/125/21 88/126/21 86/123/21 85/122/21
f 87/127/1 85/124/1 60/81/1
f 89/128/22 90/129/22 88/126/22 87/125/22
f 89/130/1 87/127/1 60/81/1
f 91/131/23 92/132/23 90/129/23 89/128/23
f 91/133/1 89/130/1 60/81/1
f 93/134/24 94/135/24 92/132/24 91/131/24
f 93/136/1 91/133/1 60/81/1
f 95/137/25 96/138/25 94/135/25 93/134/25
f 95/139/1 93/136/1 60/81/1
f 97/140/26 98/141/26 96/138/26 95/137/26
f 97/142/1 95/139/1 60/81/1
f 99/143/27 100/144/27 98/141/27 97/140/27
f 99/145/1 97/142/1 60/81/1
f 101/146/28 102/147/28 100/144/28 99/143/28
f 101/148/1 99/145/1 60/81/1
f 103/149/29 104/150/29 102/147/29 101/146/29
f 103/151/1 101/148/1 60/81/1
f 105/152/30 106/153/30 104/150/30 103/149/30
f 105/154/1 103/151/1 60/81/1
f 107/155/31 108/156/31 106/153/31 105/152/31
f 107/157/1 105/154/1 60/81/1
f 109/158/32 110/159/32 108/156/32 107/155/32
f 109/160/1 107/157/1 60/81/1
f 111/161/33 112/162/33 110/159/33 109/158/33
f 111/163/1 109/160/1 60/81/1
f 113/164/34 114/165/34 112/162/34 111/161/34
f 113/166/1 111/163/1 60/81/1
f 115/167/35 116/168/35 114/165/35 113/164/35
f 115/169/1 113/166/1 60/81/1
f 117/170/36 118/171/36 116/168/36 115/167/36
f 117/172/1 115/169/1 60/81/1
f 119/173/37 120/174/37 118/171/37 117/170/37
f 119/175/1 117/172/1 60/81/1
f 121/176/38 122/177/38 120/174/38 119/173/38
f 121/178/1 119/175/1 60/81/1
f 123/179/39 124/180/39 122/177/39 121/176/39
f 123/181/1 121/178/1 60/81/1
f 125/182/40 126/183/40 124/180/40 123/179/40
f 125/184/1 123/181/1 60/81/1
f 127/185/41 128/186/41 126/183/41 125/182/41
f 127/187/1 125/184/1 60/81/1
f 58/188/42 129/189/42 128/186/42 127/185/42
f 58/80/1 127/187/1 60/81/1
f 133/190/1 130/191/1 131/192/1
f 130/191/1 132/193/1 131/192/1
f 134/194/1 133/190/1 131/192/1
f 135/195/1 134/194/1 131/192/1
f 136/196/1 135/195/1 131/192/1
f 137/197/1 136/196/1 131/192/1
f 138/198/1 137/197/1 131/192/1
f 139/199/1 138/198/1 131/192/1
f 140/200/1 139/199/1 131/192/1
f 141/201/1 140/200/1 131/192/1
f 142/202/1 141/201/1 131/192/1
f 143/203/1 142/202/1 131/192/1
f 144/204/1 143/203/1 131/192/1
f 145/205/1 144/204/1 131/192/1
f 146/206/1 145/205/1 131/192/1
f 147/207/1 146/206/1 131/192/1
f 148/208/1 147/207/1 131/192/1
f 149/209/1 148/208/1 131/192/1
f 150/210/1 149/209/1 131/192/1
f 151/211/1 150/210/1 131/192/1
f 152/212/1 151/211/1 131/192/1
f 153/213/1 152/212/1 131/192/1
f 154/214/1 153/213/1 131/192/1
f 155/215/1 154/214/1 131/192/1
f 156/216/1 155/215/1 131/192/1
f 157/217/1 156/216/1 131/192/1
f 158/218/1 157/217/1 131/192/1
f 159/219/1 158/218/1 131/192/1
f 160/220/1 159/219/1 131/192/1
f 161/221/1 160/220/1 131/192/1
f 162/222/1 161/221/1 131/192/1
f 163/223/1 162/222/1 131/192/1
f 164/224/1 163/223/1 131/192/1
f 165/225/1 164/224/1 131/192/1
f 166/226/1 165/225/1 131/192/1
f 132/193/1 166/226/1 131/192/1
f 167/227/25 169/228/25 238/229/25 168/230/25
f 170/231/26 171/232/26 169/228/26 167/227/26
f 172/233/43 173/234/43 171/232/43 170/231/43
f 174/235/44 175/236/44 173/234/44 172/233/44
f 176/237/29 177/238/29 175/236/29 174/235/29
f 178/239/45 179/240/45 177/238/45 176/237/45
f 180/241/31 181/242/31 179/240/31 178/239/31
f 182/243/32 183/244/32 181/242/32 180/241/32
f 184/245/33 185/246/33 183/244/33 182/243/33
f 186/247/34 187/248/34 185/246/34 184/245/34
f 188/249/35 189/250/35 187/248/35 186/247/35
f 190/251/36 191/252/36 189/250/36 188/249/36
f 192/253/46 193/254/46 191/252/46 190/251/46
f 194/255/38 195/256/38 193/254/38 192/253/38
f 196/257/47 197/258/47 195/256/47 194/255/47
f 198/259/48 199/260/48 197/258/48 196/257/48
f 200/261/41 201/262/41 199/260/41 198/259/41
f 202/263/42 203/264/42 201/262/42 200/261/42
f 204/265/7 205/266/7 203/264/7 202/263/7
f 206/267/8 207/268/8 205/266/8 204/265/8
f 208/269/49 209/270/49 207/268/49 206/267/49
f 210/271/50 211/272/50 209/270/50 208/269/50
f 212/273/11 213/274/11 211/272/11 210/271/11
f 214/275/51 215/276/51 213/274/51 212/273/51
f 216/277/13 217/278/13 215/276/13 214/275/13
f 218/279/14 219/280/14 217/278/14 216/277/14
f 220/281/15 221/282/15 219/280/15 218/279/15
f 222/283/16 223/284/16 221/282/16 220/281/16
f 224/285/17 225/286/17 223/284/17 222/283/17
f 226/287/18 227/288/18 225/286/18 224/285/18
f 228/289/52 229/290/52 227/288/52 226/287/52
f 230/291/20 231/292/20 229/290/20 228/289/20
f 232/293/53 233/294/53 231/292/53 230/291/53
f 234/295/54 235/296/54 233/294/54 232/293/54
f 236/297/23 237/298/23 235/296/23 234/295/23
f 168/299/24 238/300/24 237/298/24 236/297/24
f 239/301/6 241/302/6 240/303/6
f 242/304/6 241/302/6 239/301/6
f 243/305/6 241/302/6 242/304/6
f 244/306/6 241/302/6 243/305/6
f 245/307/6 241/302/6 244/306/6
f 246/308/6 241/302/6 245/307/6
f 247/309/6 241/302/6 246/308/6
f 248/310/6 241/302/6 247/309/6
f 249/311/6 241/302/6 248/310/6
f 250/312/6 241/302/6 249/311/6
f 251/313/6 241/302/6 250/312/6
f 252/314/6 241/302/6 251/313/6
f 253/315/6 241/302/6 252/314/6
f 254/316/6 241/302/6 253/315/6
f 255/317/6 241/302/6 254/316/6
f 256/318/6 241/302/6 255/317/6
f 257/319/6 241/302/6 256/318/6
f 258/320/6 241/302/6 257/319/6
f 259/321/6 241/302/6 258/320/6
f 260/322/6 241/302/6 259/321/6
f 261/323/6 241/302/6 260/322/6
f 262/324/6 241/302/6 261/323/6
f 263/325/6 241/302/6 262/324/6
f 264/326/6 241/302/6 263/325/6
f 265/327/6 241/302/6 264/326/6
f 266/328/6 241/302/6 265/327/6
f 267/329/6 241/302/6 266/328/6
f 268/330/6 241/302/6 267/329/6
f 269/331/6 241/302/6 268/330/6
f 270/332/6 241/302/6 269/331/6
f 271/333/6 241/302/6 270/332/6
f 272/334/6 241/302/6 271/333/6
f 273/335/6 241/302/6 272/334/6
f 274/336/6 241/302/6 273/335/6
f 275/337/6 241/302/6 274/336/6
f 240/303/6 241/302/6 275/337/6
