# Blender v2.80 (sub 75) OBJ File: 'Props Feria 1_UVs.blend'
# www.blender.org
o Cube
v 1.000000 1.996641 1.109028
v -1.000000 0.201835 1.109028
v -0.800000 1.996641 1.109028
v 0.800000 -0.003359 1.109028
v 1.000000 -0.003359 1.109028
v 1.000000 0.201835 1.109028
v 1.000000 1.798780 -0.797764
v -1.000000 1.798780 -0.797764
v -1.000000 0.201835 -0.797764
v 1.000000 0.201835 -0.797764
v -1.000000 1.996641 1.109028
v 1.000000 1.798780 0.807182
v 1.000000 0.201835 0.807182
v -1.000000 1.798780 1.109028
v -1.000000 1.798780 0.807182
v -1.000000 0.201835 0.807182
v 0.800000 1.798780 1.011125
v 0.800000 1.798780 -0.988875
v 0.800000 0.201835 -0.988875
v 0.800000 0.201835 1.011125
v 0.800000 1.996641 -0.797764
v 0.800000 -0.003359 -0.797764
v 0.800000 1.996641 0.807182
v 0.800000 -0.003359 0.807182
v -0.800000 1.798780 1.011125
v -0.800000 0.201835 1.011125
v -0.800000 -0.003359 -0.797764
v -0.800000 -0.003359 0.807182
v -0.800000 1.798780 -0.988875
v -0.800000 0.201835 -0.988875
v -0.800000 1.996641 -0.797764
v -0.800000 1.996641 0.807182
v -1.000000 2.094544 -0.797764
v -1.000000 2.094544 -0.988875
v 0.800000 2.094544 -0.988875
v 1.000000 2.094544 -0.988875
v 1.000000 2.094544 0.807182
v 1.000000 2.094544 1.011125
v -0.800000 2.094544 1.011125
v -1.000000 2.094544 1.011125
v -1.000000 2.094544 0.807182
v 1.000000 2.094544 -0.797764
v 0.800000 2.094544 -0.797764
v 0.800000 2.094544 0.807182
v -0.800000 2.094544 -0.988875
v 0.800000 2.094544 1.011125
v -0.800000 2.094544 -0.797764
v -0.800000 2.094544 0.807182
v -1.000000 -0.096070 0.807182
v -1.000000 -0.096070 1.011125
v -0.800000 -0.096070 -0.988875
v -1.000000 -0.096070 -0.988875
v 1.000000 -0.096070 -0.797764
v 1.000000 -0.096070 -0.988875
v 0.800000 -0.096070 1.011125
v 1.000000 -0.096070 1.011125
v -1.000000 -0.096070 -0.797764
v 1.000000 -0.096070 0.807182
v -0.800000 -0.096070 -0.797764
v -0.800000 -0.096070 0.807182
v 0.800000 -0.096070 -0.988875
v -0.800000 -0.096070 1.011125
v 0.800000 -0.096070 -0.797764
v 0.800000 -0.096070 0.807182
v -1.000000 0.201835 -1.092711
v -1.000000 -0.003359 -1.092711
v -0.800000 -0.003359 -1.092711
v 0.800000 1.996641 -1.092711
v 1.000000 1.996641 -1.092711
v 1.000000 0.201835 -1.092711
v 1.000000 -0.003359 -1.092711
v -1.000000 1.996641 -1.092711
v -1.000000 1.798780 -1.092711
v 1.000000 1.798780 -1.092711
v 0.800000 1.798780 -1.092711
v 0.800000 0.201835 -1.092711
v -1.000000 -0.096070 -1.092711
v 0.800000 2.094544 -1.092711
v -0.800000 -0.096070 -1.092711
v 0.800000 -0.003359 -1.092711
v -0.800000 1.996641 -1.092711
v -0.800000 1.798780 -1.092711
v -0.800000 0.201835 -1.092711
v 1.000000 2.094544 -1.092711
v 0.800000 -0.096070 -1.092711
v 1.000000 -0.096070 -1.092711
v -0.800000 2.094544 -1.092711
v -1.000000 2.094544 -1.092711
v -1.096419 -0.003359 0.807182
v -1.096419 -0.003359 1.011125
v -1.096419 1.798780 1.011125
v -1.096419 1.996641 1.011125
v -1.096419 1.996641 -0.797764
v -1.096419 1.996641 -0.988875
v -1.096419 0.201835 -0.988875
v -1.096419 -0.003359 -0.988875
v -1.096419 0.201835 1.011125
v -1.096419 1.798780 -0.988875
v -1.096419 1.798780 -0.797764
v -1.096419 0.201835 -0.797764
v -1.096419 -0.003359 -0.797764
v -1.096419 1.996641 0.807182
v -1.096419 1.798780 0.807182
v -1.096419 0.201835 0.807182
v -1.096419 2.094544 -0.797764
v -1.096419 -0.096070 -0.988875
v -1.096419 1.798780 -1.092711
v -1.096419 -0.096070 -1.092711
v -1.096419 -0.096070 1.011125
v -1.096419 -0.003359 -1.092711
v -1.096419 0.201835 -1.092711
v -1.096419 1.996641 -1.092711
v -1.096419 2.094544 -0.988875
v -1.096419 2.094544 -1.092711
v -1.096419 2.094544 0.807182
v -1.096419 2.094544 1.011125
v -1.096419 -0.096070 0.807182
v -1.096419 -0.096070 -0.797764
v 1.000000 1.798780 1.109028
v -0.800000 1.798780 1.109028
v -1.000000 -0.096070 1.109028
v -1.096419 -0.096070 1.109028
v -1.000000 -0.003359 1.109028
v -0.800000 0.201835 1.109028
v -1.000000 2.094544 1.109028
v -1.096419 2.094544 1.109028
v -0.800000 -0.003359 1.109028
v 0.800000 1.996641 1.109028
v 0.800000 1.798780 1.109028
v 0.800000 0.201835 1.109028
v 1.000000 -0.096070 1.109028
v 0.800000 -0.096070 1.109028
v -0.800000 -0.096070 1.109028
v -1.096419 1.798780 1.109028
v -1.096419 1.996641 1.109028
v -0.800000 2.094544 1.109028
v 1.000000 2.094544 1.109028
v 0.800000 2.094544 1.109028
v -1.096419 -0.003359 1.109028
v -1.096419 0.201835 1.109028
v 1.097903 1.996641 -0.988875
v 1.097903 1.996641 -1.092711
v 1.097903 0.201835 -1.092711
v 1.097903 0.201835 -0.988875
v 1.097903 -0.003359 -0.988875
v 1.097903 -0.003359 -0.797764
v 1.097903 1.996641 0.807182
v 1.097903 1.996641 1.011125
v 1.097903 0.201835 1.011125
v 1.097903 -0.003359 1.011125
v 1.097903 0.201835 1.109028
v 1.097903 -0.003359 1.109028
v 1.097903 1.798780 -0.988875
v 1.097903 1.798780 1.011125
v 1.097903 1.798780 0.807182
v 1.097903 1.798780 1.109028
v 1.097903 2.094544 -0.988875
v 1.097903 2.094544 -1.092711
v 1.097903 0.201835 0.807182
v 1.097903 -0.003359 0.807182
v 1.097903 1.996641 -0.797764
v 1.097903 1.798780 -0.797764
v 1.097903 0.201835 -0.797764
v 1.097903 1.996641 1.109028
v 1.097903 2.094544 1.011125
v 1.097903 2.094544 1.109028
v 1.097903 -0.096070 1.011125
v 1.097903 2.094544 -0.797764
v 1.097903 -0.003359 -1.092711
v 1.097903 -0.096070 -1.092711
v 1.097903 -0.096070 -0.988875
v 1.097903 -0.096070 1.109028
v 1.097903 2.094544 0.807182
v 1.097903 -0.096070 -0.797764
v 1.097903 -0.096070 0.807182
v 1.097903 1.798780 -1.092711
vt 0.960067 0.068113
vt 0.942575 0.068157
vt 0.942554 0.059633
vt 0.960046 0.059589
vt 0.784456 0.464324
vt 0.776260 0.464339
vt 0.776244 0.455684
vt 0.784440 0.455669
vt 0.969918 0.463978
vt 0.961263 0.463994
vt 0.961247 0.455339
vt 0.969902 0.455323
vt 0.943772 0.464027
vt 0.802596 0.464290
vt 0.802580 0.455635
vt 0.943755 0.455372
vt 0.744375 0.283928
vt 0.740576 0.413046
vt 0.732014 0.406192
vt 0.736850 0.293467
vt 0.211644 0.438931
vt 0.353090 0.438782
vt 0.353099 0.447437
vt 0.211653 0.447586
vt 0.391393 0.439816
vt 0.408885 0.439939
vt 0.408824 0.448593
vt 0.391332 0.448471
vt 0.783702 0.245362
vt 0.801842 0.245317
vt 0.801864 0.253971
vt 0.783724 0.254017
vt 0.764084 0.424970
vt 0.765083 0.283090
vt 0.773738 0.283151
vt 0.772739 0.425031
vt 0.370771 0.438763
vt 0.370752 0.420734
vt 0.379276 0.420725
vt 0.379295 0.438754
vt 0.804555 0.620958
vt 0.811021 0.491626
vt 0.819914 0.499071
vt 0.812712 0.611052
vt 0.810778 0.218602
vt 0.805504 0.087529
vt 0.815903 0.096324
vt 0.818805 0.209259
vt 0.765202 0.266196
vt 0.765267 0.257017
vt 0.773922 0.257077
vt 0.773857 0.266257
vt 0.550057 0.440930
vt 0.568196 0.441057
vt 0.568135 0.449712
vt 0.549996 0.449585
vt 0.934283 0.414515
vt 0.804215 0.422028
vt 0.812328 0.412084
vt 0.925361 0.407106
vt 0.370602 0.278851
vt 0.370584 0.261956
vt 0.379108 0.261947
vt 0.379126 0.278842
vt 0.528513 0.301214
vt 0.527821 0.399727
vt 0.428814 0.399032
vt 0.429506 0.300519
vt 0.193795 0.279038
vt 0.193944 0.420921
vt 0.185290 0.420929
vt 0.185140 0.279047
vt 0.578631 0.441693
vt 0.587154 0.441753
vt 0.587093 0.450408
vt 0.578570 0.450348
vt 0.193767 0.252963
vt 0.193777 0.262143
vt 0.185122 0.262152
vt 0.185113 0.252972
vt 0.940213 0.284831
vt 0.932100 0.294775
vt 0.531052 0.405823
vt 0.541325 0.293691
vt 0.549620 0.284158
vt 0.539602 0.413391
vt 0.783260 0.068555
vt 0.775064 0.068575
vt 0.775043 0.060052
vt 0.783239 0.060031
vt 0.428118 0.295116
vt 0.417845 0.407248
vt 0.409550 0.416781
vt 0.419568 0.287548
vt 0.588399 0.264951
vt 0.588280 0.281845
vt 0.579757 0.281785
vt 0.579876 0.264891
vt 0.943017 0.244964
vt 0.943039 0.253618
vt 0.920178 0.303642
vt 0.920421 0.402158
vt 0.821412 0.402402
vt 0.821169 0.303887
vt 0.223981 0.409189
vt 0.337170 0.403299
vt 0.346153 0.410635
vt 0.215946 0.419195
vt 0.370575 0.252777
vt 0.379098 0.252768
vt 0.728630 0.303678
vt 0.727935 0.402380
vt 0.628928 0.401683
vt 0.629623 0.302981
vt 0.968722 0.068091
vt 0.968701 0.059568
vt 0.934618 0.614011
vt 0.925724 0.606565
vt 0.211458 0.262124
vt 0.211448 0.252945
vt 0.810145 0.292344
vt 0.819068 0.299753
vt 0.382739 0.439755
vt 0.382678 0.448410
vt 0.922726 0.206096
vt 0.824211 0.206342
vt 0.823964 0.107638
vt 0.922480 0.107392
vt 0.941083 0.484678
vt 0.932926 0.494584
vt 0.940626 0.226781
vt 0.930227 0.217986
vt 0.604834 0.441878
vt 0.604774 0.450532
vt 0.588464 0.255771
vt 0.579940 0.255711
vt 0.379304 0.447409
vt 0.370780 0.447418
vt 0.801400 0.068510
vt 0.801379 0.059986
vt 0.576392 0.441115
vt 0.576331 0.449770
vt 0.747522 0.266071
vt 0.747587 0.256892
vt 0.234990 0.301809
vt 0.333694 0.301705
vt 0.333799 0.400714
vt 0.235095 0.400818
vt 0.343012 0.290893
vt 0.229823 0.296783
vt 0.220840 0.289447
vt 0.351046 0.280887
vt 0.746277 0.442874
vt 0.746216 0.451529
vt 0.920259 0.601076
vt 0.821744 0.601260
vt 0.821559 0.502556
vt 0.920075 0.502372
vt 0.935352 0.095708
vt 0.927325 0.105051
vt 0.353071 0.420753
vt 0.352904 0.261975
vt 0.352921 0.278870
vt 0.211475 0.279019
vt 0.211625 0.420902
vt 0.193963 0.438950
vt 0.763957 0.442999
vt 0.763896 0.451653
vt 0.606080 0.265075
vt 0.606144 0.255896
vt 0.775506 0.245382
vt 0.775528 0.254037
vt 0.772612 0.443060
vt 0.772551 0.451714
vt 0.746404 0.424845
vt 0.747403 0.282966
vt 0.605961 0.281970
vt 0.604961 0.423849
vt 0.587281 0.423724
vt 0.611131 0.422767
vt 0.614930 0.293649
vt 0.623492 0.300503
vt 0.618655 0.413227
vt 0.193973 0.447605
vt 0.185318 0.447614
vt 0.185309 0.438959
vt 0.960509 0.244920
vt 0.960531 0.253575
vt 0.942973 0.227283
vt 0.960465 0.227239
vt 0.801798 0.227636
vt 0.783658 0.227681
vt 0.783305 0.086236
vt 0.775109 0.086256
vt 0.960111 0.085794
vt 0.968766 0.085772
vt 0.969120 0.227218
vt 0.801444 0.086190
vt 0.775462 0.227702
vt 0.942620 0.085837
vt 0.969164 0.244898
vt 0.352894 0.252796
vt 0.410007 0.280030
vt 0.392516 0.279908
vt 0.392634 0.263013
vt 0.410126 0.263136
vt 0.551179 0.281021
vt 0.551298 0.264127
vt 0.569319 0.281149
vt 0.569438 0.264254
vt 0.568323 0.423028
vt 0.550183 0.422901
vt 0.409011 0.421910
vt 0.391520 0.421787
vt 0.392699 0.253834
vt 0.410190 0.253957
vt 0.383861 0.279847
vt 0.383980 0.262952
vt 0.551362 0.254948
vt 0.577633 0.264312
vt 0.569502 0.255075
vt 0.577698 0.255133
vt 0.384044 0.253773
vt 0.382865 0.421726
vt 0.577515 0.281206
vt 0.576519 0.423086
vt 0.578758 0.423664
vt 0.944069 0.623153
vt 0.961560 0.623120
vt 0.961593 0.640801
vt 0.944102 0.640833
vt 0.970215 0.623104
vt 0.970248 0.640785
vt 0.802893 0.623416
vt 0.802926 0.641097
vt 0.944118 0.649357
vt 0.802942 0.649621
vt 0.784753 0.623450
vt 0.784786 0.641131
vt 0.961296 0.481675
vt 0.969951 0.481659
vt 0.784489 0.482004
vt 0.776557 0.623465
vt 0.776293 0.482020
vt 0.802629 0.481971
vt 0.970264 0.649309
vt 0.961609 0.649325
vt 0.943805 0.481707
vt 0.776590 0.641146
vt 0.784802 0.649655
vt 0.776606 0.649670
vt 0.969186 0.253553
vt 0.969178 0.266098
vt 0.960523 0.266119
vt 0.960501 0.256940
vt 0.969156 0.256919
vt 0.943423 0.424940
vt 0.960915 0.424897
vt 0.960960 0.442926
vt 0.943468 0.442970
vt 0.802293 0.443318
vt 0.943489 0.451624
vt 0.802314 0.451973
vt 0.802248 0.425288
vt 0.801856 0.266511
vt 0.783716 0.266556
vt 0.783694 0.257376
vt 0.801834 0.257332
vt 0.784108 0.425333
vt 0.784153 0.443363
vt 0.801898 0.283406
vt 0.783758 0.283451
vt 0.943032 0.266163
vt 0.943073 0.283058
vt 0.775957 0.443383
vt 0.775912 0.425353
vt 0.960565 0.283014
vt 0.969615 0.442905
vt 0.969636 0.451560
vt 0.960981 0.451581
vt 0.969220 0.282993
vt 0.775521 0.266576
vt 0.775498 0.257397
vt 0.784174 0.452018
vt 0.775978 0.452038
vt 0.969570 0.424875
vt 0.775562 0.283471
vt 0.943009 0.256983
vn 0.0000 0.0000 -1.0000
vn 0.0000 0.0000 1.0000
vn 1.0000 0.0000 0.0000
vn 0.0000 1.0000 0.0000
vn -1.0000 0.0000 0.0000
vn 0.0000 -1.0000 0.0000
s off
f 72/1/1 73/2/1 107/3/1 112/4/1
f 5/5/2 131/6/2 172/7/2 152/8/2
f 137/9/2 1/10/2 164/11/2 166/12/2
f 119/13/2 6/14/2 151/15/2 156/16/2
f 27/17/3 28/18/3 60/19/3 59/20/3
f 46/21/4 39/22/4 136/23/4 138/24/4
f 92/25/5 91/26/5 134/27/5 135/28/5
f 71/29/1 70/30/1 143/31/1 169/32/1
f 58/33/6 53/34/6 174/35/6 175/36/6
f 40/37/4 41/38/4 115/39/4 116/40/4
f 20/41/4 26/42/4 124/43/4 130/44/4
f 18/45/6 29/46/6 82/47/6 75/48/6
f 54/49/6 86/50/6 170/51/6 171/52/6
f 97/53/5 90/54/5 139/55/5 140/56/5
f 13/57/1 12/58/1 155/59/1 159/60/1
f 33/61/4 34/62/4 113/63/4 105/64/4
f 16/65/5 15/66/5 8/67/5 9/68/5
f 42/69/4 37/70/4 173/71/4 168/72/4
f 109/73/6 50/74/6 121/75/6 122/76/6
f 84/77/4 36/78/4 157/79/4 158/80/4
f 10/81/4 13/57/4 159/60/4 163/82/4
f 16/83/4 9/84/4 100/85/4 104/86/4
f 66/87/1 77/88/1 108/89/1 110/90/1
f 8/91/6 15/92/6 103/93/6 99/94/6
f 52/95/6 57/96/6 118/97/6 106/98/6
f 70/30/1 74/99/1 176/100/1 143/31/1
f 10/101/3 7/102/3 12/103/3 13/104/3
f 23/105/1 32/106/1 48/107/1 44/108/1
f 34/62/4 88/109/4 114/110/4 113/63/4
f 36/78/4 42/69/4 168/72/4 157/79/4
f 27/111/6 22/112/6 24/113/6 28/114/6
f 88/115/1 72/1/1 112/4/1 114/116/1
f 17/117/5 20/41/5 130/44/5 129/118/5
f 35/119/4 36/78/4 84/77/4 78/120/4
f 7/121/2 10/81/2 163/82/2 162/122/2
f 116/123/5 92/25/5 135/28/5 126/124/5
f 30/125/1 29/126/1 18/127/1 19/128/1
f 25/129/6 17/117/6 129/118/6 120/130/6
f 1/10/2 119/13/2 156/16/2 164/11/2
f 19/131/5 18/45/5 75/48/5 76/132/5
f 50/74/6 62/133/6 133/134/6 121/75/6
f 77/135/6 52/95/6 106/98/6 108/136/6
f 12/58/6 7/121/6 162/122/6 155/59/6
f 40/37/4 116/40/4 126/137/4 125/138/4
f 65/139/1 66/87/1 110/90/1 111/140/1
f 73/2/1 65/139/1 111/140/1 107/3/1
f 90/54/5 109/141/5 122/142/5 139/55/5
f 54/49/6 61/143/6 85/144/6 86/50/6
f 21/145/4 31/146/4 32/147/4 23/148/4
f 31/149/2 21/150/2 43/151/2 47/152/2
f 62/133/6 55/153/6 132/154/6 133/134/6
f 20/155/2 17/156/2 25/157/2 26/158/2
f 29/46/3 30/159/3 83/160/3 82/47/3
f 53/34/6 54/49/6 171/52/6 174/35/6
f 48/161/4 41/38/4 40/37/4 39/22/4
f 45/162/4 34/62/4 33/61/4 47/163/4
f 47/163/4 33/61/4 41/38/4 48/161/4
f 42/69/4 43/164/4 44/165/4 37/70/4
f 36/78/4 35/119/4 43/164/4 42/69/4
f 37/70/4 44/165/4 46/21/4 38/166/4
f 35/119/4 45/162/4 47/163/4 43/164/4
f 44/165/4 48/161/4 39/22/4 46/21/4
f 15/92/1 16/83/1 104/86/1 103/93/1
f 55/153/6 56/167/6 131/168/6 132/154/6
f 61/143/6 51/169/6 79/170/6 85/144/6
f 32/106/3 31/149/3 47/152/3 48/107/3
f 21/150/5 23/105/5 44/108/5 43/151/5
f 9/84/2 8/91/2 99/94/2 100/85/2
f 86/171/1 71/29/1 169/32/1 170/172/1
f 131/168/6 56/167/6 167/173/6 172/174/6
f 64/175/6 58/33/6 56/167/6 55/153/6
f 61/143/6 54/49/6 53/34/6 63/176/6
f 63/176/6 53/34/6 58/33/6 64/175/6
f 51/169/6 61/143/6 63/176/6 59/177/6
f 60/178/6 64/175/6 55/153/6 62/133/6
f 49/179/6 60/178/6 62/133/6 50/74/6
f 52/95/6 51/169/6 59/177/6 57/96/6
f 57/96/6 59/177/6 60/178/6 49/179/6
f 24/180/5 22/181/5 63/182/5 64/183/5
f 38/166/4 137/184/4 166/185/4 165/186/4
f 22/181/2 27/17/2 59/20/2 63/182/2
f 56/167/6 58/33/6 175/36/6 167/173/6
f 41/38/4 33/61/4 105/64/4 115/39/4
f 26/42/3 25/129/3 120/130/3 124/43/3
f 28/18/1 24/180/1 64/183/1 60/19/1
f 74/99/1 69/187/1 142/188/1 176/100/1
f 75/189/1 68/190/1 69/187/1 74/99/1
f 76/191/1 75/189/1 74/99/1 70/30/1
f 80/192/1 76/191/1 70/30/1 71/29/1
f 66/87/1 67/193/1 79/194/1 77/88/1
f 68/190/1 81/195/1 87/196/1 78/197/1
f 67/193/1 83/198/1 76/191/1 80/192/1
f 67/193/1 80/192/1 85/199/1 79/194/1
f 82/200/1 81/195/1 68/190/1 75/189/1
f 73/2/1 72/1/1 81/195/1 82/200/1
f 65/139/1 73/2/1 82/200/1 83/198/1
f 66/87/1 65/139/1 83/198/1 67/193/1
f 80/192/1 71/29/1 86/171/1 85/199/1
f 81/195/1 72/1/1 88/115/1 87/196/1
f 69/187/1 68/190/1 78/197/1 84/201/1
f 6/14/2 5/5/2 152/8/2 151/15/2
f 37/70/4 38/166/4 165/186/4 173/71/4
f 30/159/4 19/131/4 76/132/4 83/160/4
f 45/162/4 35/119/4 78/120/4 87/202/4
f 34/62/4 45/162/4 87/202/4 88/109/4
f 51/169/6 52/95/6 77/135/6 79/170/6
f 99/203/5 93/204/5 94/205/5 98/206/5
f 100/207/5 99/203/5 98/206/5 95/208/5
f 101/209/5 100/207/5 95/208/5 96/210/5
f 89/211/5 104/212/5 100/207/5 101/209/5
f 103/213/5 102/214/5 93/204/5 99/203/5
f 91/26/5 92/25/5 102/214/5 103/213/5
f 97/53/5 91/26/5 103/213/5 104/212/5
f 90/54/5 97/53/5 104/212/5 89/211/5
f 98/206/5 94/205/5 112/215/5 107/216/5
f 94/205/5 93/204/5 105/217/5 113/218/5
f 95/208/5 98/206/5 107/216/5 111/219/5
f 106/220/5 96/210/5 110/221/5 108/222/5
f 96/210/5 95/208/5 111/219/5 110/221/5
f 94/205/5 113/218/5 114/223/5 112/215/5
f 102/214/5 92/25/5 116/123/5 115/224/5
f 93/204/5 102/214/5 115/224/5 105/217/5
f 101/209/5 96/210/5 106/220/5 118/225/5
f 89/211/5 101/209/5 118/225/5 117/226/5
f 90/54/5 89/211/5 117/226/5 109/141/5
f 57/96/6 49/179/6 117/227/6 118/97/6
f 49/179/6 50/74/6 109/73/6 117/227/6
f 91/26/5 97/53/5 140/56/5 134/27/5
f 120/228/2 3/229/2 11/230/2 14/231/2
f 11/230/2 3/229/2 136/232/2 125/233/2
f 124/234/2 120/228/2 14/231/2 2/235/2
f 2/235/2 14/231/2 134/236/2 140/237/2
f 127/238/2 124/234/2 2/235/2 123/239/2
f 3/229/2 128/240/2 138/241/2 136/232/2
f 4/242/2 127/238/2 133/243/2 132/244/2
f 5/5/2 6/14/2 130/245/2 4/242/2
f 11/230/2 125/233/2 126/246/2 135/247/2
f 6/14/2 119/13/2 129/248/2 130/245/2
f 119/13/2 1/10/2 128/240/2 129/248/2
f 5/5/2 4/242/2 132/244/2 131/6/2
f 127/238/2 123/239/2 121/249/2 133/243/2
f 4/242/2 130/245/2 124/234/2 127/238/2
f 129/248/2 128/240/2 3/229/2 120/228/2
f 128/240/2 1/10/2 137/9/2 138/241/2
f 14/231/2 11/230/2 135/247/2 134/236/2
f 123/239/2 2/235/2 140/237/2 139/250/2
f 121/249/2 123/239/2 139/250/2 122/251/2
f 39/22/4 40/37/4 125/138/4 136/23/4
f 69/187/1 84/201/1 158/252/1 142/188/1
f 38/166/4 46/21/4 138/24/4 137/184/4
f 157/253/3 141/254/3 142/255/3 158/256/3
f 155/257/3 147/258/3 148/259/3 154/260/3
f 149/261/3 154/260/3 156/262/3 151/263/3
f 159/264/3 155/257/3 154/260/3 149/261/3
f 144/265/3 145/266/3 169/267/3 143/268/3
f 160/269/3 159/264/3 149/261/3 150/270/3
f 145/266/3 144/265/3 163/271/3 146/272/3
f 144/265/3 153/273/3 162/274/3 163/271/3
f 160/269/3 150/270/3 167/275/3 175/276/3
f 153/273/3 141/254/3 161/277/3 162/274/3
f 146/272/3 163/271/3 159/264/3 160/269/3
f 162/274/3 161/277/3 147/258/3 155/257/3
f 148/259/3 165/278/3 166/279/3 164/280/3
f 161/277/3 141/254/3 157/253/3 168/281/3
f 145/266/3 171/282/3 170/283/3 169/267/3
f 167/275/3 150/270/3 152/284/3 172/285/3
f 148/259/3 147/258/3 173/286/3 165/278/3
f 147/258/3 161/277/3 168/281/3 173/286/3
f 150/270/3 149/261/3 151/263/3 152/284/3
f 145/266/3 146/272/3 174/287/3 171/282/3
f 146/272/3 160/269/3 175/276/3 174/287/3
f 153/273/3 144/265/3 143/268/3 176/288/3
f 141/254/3 153/273/3 176/288/3 142/255/3
f 154/260/3 148/259/3 164/280/3 156/262/3
