# Blender v2.80 (sub 75) OBJ File: 'Juguetes_1_UVs.blend'
# www.blender.org
o Coche_Cube.026
v 0.293444 0.110670 0.179098
v 0.293444 0.221876 0.170320
v -0.293444 0.110670 0.179098
v -0.293444 0.251382 0.179098
v 0.293444 0.110670 -0.179098
v 0.293444 0.221876 -0.170320
v -0.293444 0.110670 -0.179098
v -0.293444 0.251382 -0.179098
v 0.067718 0.110670 0.179098
v 0.067718 0.233224 0.170320
v 0.067718 0.110670 -0.179098
v 0.067718 0.233224 -0.170320
v 0.005399 0.366454 0.166294
v -0.246158 0.379101 0.166294
v -0.246158 0.379101 -0.166294
v 0.005399 0.366454 -0.166294
v 0.127494 0.077164 -0.159410
v 0.148906 0.128858 -0.159410
v 0.200601 0.150271 -0.159410
v 0.252295 0.128858 -0.159410
v 0.273707 0.077164 -0.159410
v 0.252295 0.025470 -0.159410
v 0.200601 0.004057 -0.159410
v 0.148906 0.025470 -0.159410
v 0.127494 0.077164 -0.205848
v 0.148906 0.128858 -0.205848
v 0.200601 0.150271 -0.205848
v 0.252295 0.128858 -0.205848
v 0.273707 0.077164 -0.205848
v 0.252295 0.025470 -0.205848
v 0.200601 0.004057 -0.205848
v 0.148906 0.025470 -0.205848
v 0.144975 0.077164 -0.205848
v 0.161268 0.116497 -0.205848
v 0.200601 0.132789 -0.205848
v 0.239934 0.116497 -0.205848
v 0.256226 0.077164 -0.205848
v 0.239934 0.037831 -0.205848
v 0.200601 0.021538 -0.205848
v 0.161268 0.037831 -0.205848
v 0.144975 0.077164 -0.186652
v 0.161268 0.116497 -0.186652
v 0.200601 0.132789 -0.186652
v 0.239934 0.116497 -0.186652
v 0.256226 0.077164 -0.186652
v 0.239934 0.037831 -0.186652
v 0.200601 0.021538 -0.186652
v 0.161268 0.037831 -0.186652
v 0.172795 0.077164 -0.186653
v 0.180939 0.096826 -0.186653
v 0.200601 0.104970 -0.186653
v 0.220263 0.096826 -0.186653
v 0.228407 0.077164 -0.186653
v 0.220263 0.057502 -0.186653
v 0.200601 0.049358 -0.186653
v 0.180939 0.057502 -0.186653
v 0.172795 0.077164 -0.172656
v 0.180939 0.096826 -0.172656
v 0.200601 0.104970 -0.172656
v 0.220263 0.096826 -0.172656
v 0.228407 0.077164 -0.172656
v 0.220263 0.057502 -0.172656
v 0.200601 0.049358 -0.172656
v 0.180939 0.057502 -0.172656
v 0.189577 0.077164 -0.172657
v 0.192806 0.084959 -0.172657
v 0.200601 0.088188 -0.172657
v 0.208396 0.084959 -0.172657
v 0.211625 0.077164 -0.172657
v 0.208396 0.069369 -0.172657
v 0.200601 0.066140 -0.172657
v 0.192806 0.069369 -0.172657
v 0.200601 0.077164 -0.172657
v -0.260709 0.077164 -0.159410
v -0.239296 0.128858 -0.159410
v -0.187602 0.150271 -0.159410
v -0.135908 0.128858 -0.159410
v -0.114495 0.077164 -0.159410
v -0.135908 0.025470 -0.159410
v -0.187602 0.004057 -0.159410
v -0.239296 0.025470 -0.159410
v -0.260709 0.077164 -0.205848
v -0.239296 0.128858 -0.205848
v -0.187602 0.150271 -0.205848
v -0.135908 0.128858 -0.205848
v -0.114495 0.077164 -0.205848
v -0.135908 0.025470 -0.205848
v -0.187602 0.004057 -0.205848
v -0.239296 0.025470 -0.205848
v -0.243227 0.077164 -0.205848
v -0.226935 0.116497 -0.205848
v -0.187602 0.132789 -0.205848
v -0.148269 0.116497 -0.205848
v -0.131976 0.077164 -0.205848
v -0.148269 0.037831 -0.205848
v -0.187602 0.021538 -0.205848
v -0.226935 0.037831 -0.205848
v -0.243227 0.077164 -0.186652
v -0.226935 0.116497 -0.186652
v -0.187602 0.132789 -0.186652
v -0.148269 0.116497 -0.186652
v -0.131976 0.077164 -0.186652
v -0.148269 0.037831 -0.186652
v -0.187602 0.021538 -0.186652
v -0.226935 0.037831 -0.186652
v -0.215408 0.077164 -0.186652
v -0.207263 0.096826 -0.186652
v -0.187602 0.104970 -0.186652
v -0.167940 0.096826 -0.186653
v -0.159796 0.077164 -0.186653
v -0.167940 0.057502 -0.186653
v -0.187602 0.049358 -0.186652
v -0.207263 0.057502 -0.186652
v -0.215408 0.077164 -0.172656
v -0.207263 0.096826 -0.172656
v -0.187602 0.104970 -0.172656
v -0.167940 0.096826 -0.172656
v -0.159796 0.077164 -0.172656
v -0.167940 0.057502 -0.172656
v -0.187602 0.049358 -0.172656
v -0.207263 0.057502 -0.172656
v -0.198625 0.077164 -0.172657
v -0.195396 0.084959 -0.172657
v -0.187601 0.088188 -0.172657
v -0.179806 0.084959 -0.172657
v -0.176578 0.077164 -0.172657
v -0.179806 0.069369 -0.172657
v -0.187601 0.066140 -0.172657
v -0.195396 0.069369 -0.172657
v -0.187601 0.077164 -0.172657
v -0.114493 0.077164 0.154771
v -0.135905 0.128858 0.154771
v -0.187600 0.150271 0.154771
v -0.239294 0.128858 0.151036
v -0.260706 0.077164 0.151036
v -0.239294 0.025470 0.151036
v -0.187600 0.004057 0.154771
v -0.135905 0.025470 0.154771
v -0.114493 0.077164 0.201209
v -0.135905 0.128858 0.201209
v -0.187600 0.150271 0.201209
v -0.239294 0.128858 0.201209
v -0.260706 0.077164 0.201209
v -0.239294 0.025470 0.201209
v -0.187600 0.004057 0.201209
v -0.135905 0.025470 0.201209
v -0.131974 0.077164 0.201209
v -0.148267 0.116497 0.201209
v -0.187600 0.132789 0.201209
v -0.226933 0.116497 0.201209
v -0.243225 0.077164 0.201209
v -0.226933 0.037831 0.201209
v -0.187600 0.021538 0.201209
v -0.148267 0.037831 0.201209
v -0.131974 0.077164 0.178278
v -0.148267 0.116497 0.178278
v -0.187600 0.132789 0.182013
v -0.226933 0.116497 0.182013
v -0.243225 0.077164 0.182013
v -0.226933 0.037831 0.182013
v -0.187600 0.021538 0.182013
v -0.148267 0.037831 0.178278
v -0.159794 0.077164 0.178278
v -0.167938 0.096826 0.178278
v -0.187600 0.104970 0.178278
v -0.207262 0.096826 0.178278
v -0.215406 0.077164 0.178278
v -0.207262 0.057502 0.178278
v -0.187600 0.049358 0.178278
v -0.167938 0.057502 0.178278
v -0.159794 0.077164 0.164282
v -0.167938 0.096826 0.164282
v -0.187600 0.104970 0.164282
v -0.207262 0.096826 0.164282
v -0.215406 0.077164 0.164282
v -0.207262 0.057502 0.164282
v -0.187600 0.049358 0.164282
v -0.167938 0.057502 0.164282
v -0.176576 0.077164 0.164282
v -0.179805 0.084959 0.164282
v -0.187600 0.088188 0.164282
v -0.195395 0.084959 0.164282
v -0.198624 0.077164 0.164282
v -0.195395 0.069369 0.164282
v -0.187600 0.066140 0.164282
v -0.179805 0.069369 0.164282
v -0.187600 0.077164 0.164282
v 0.273710 0.077164 0.154771
v 0.252297 0.128858 0.154771
v 0.200603 0.150271 0.154771
v 0.148909 0.128858 0.151036
v 0.127496 0.077164 0.151036
v 0.148909 0.025470 0.151036
v 0.200603 0.004057 0.154771
v 0.252297 0.025470 0.154771
v 0.273710 0.077164 0.201209
v 0.252297 0.128858 0.201209
v 0.200603 0.150271 0.201209
v 0.148909 0.128858 0.201209
v 0.127496 0.077164 0.201209
v 0.148909 0.025470 0.201209
v 0.200603 0.004057 0.201209
v 0.252297 0.025470 0.201209
v 0.256228 0.077164 0.201209
v 0.239936 0.116497 0.201209
v 0.200603 0.132789 0.201209
v 0.161270 0.116497 0.201209
v 0.144977 0.077164 0.201209
v 0.161270 0.037831 0.201209
v 0.200603 0.021538 0.201209
v 0.239936 0.037831 0.201209
v 0.256228 0.077164 0.178278
v 0.239936 0.116497 0.178278
v 0.200603 0.132789 0.182013
v 0.161270 0.116497 0.182013
v 0.144977 0.077164 0.182013
v 0.161270 0.037831 0.182013
v 0.200603 0.021538 0.182013
v 0.239936 0.037831 0.178278
v 0.228409 0.077164 0.178278
v 0.220264 0.096826 0.178278
v 0.200602 0.104970 0.178278
v 0.180941 0.096826 0.178278
v 0.172797 0.077164 0.178278
v 0.180941 0.057502 0.178278
v 0.200602 0.049358 0.178278
v 0.220264 0.057502 0.178278
v 0.228409 0.077164 0.164282
v 0.220264 0.096826 0.164282
v 0.200602 0.104970 0.164282
v 0.180941 0.096826 0.164282
v 0.172797 0.077164 0.164282
v 0.180941 0.057502 0.164282
v 0.200602 0.049358 0.164282
v 0.220264 0.057502 0.164282
v 0.211626 0.077164 0.164282
v 0.208397 0.084959 0.164282
v 0.200602 0.088188 0.164282
v 0.192807 0.084959 0.164282
v 0.189579 0.077164 0.164282
v 0.192807 0.069369 0.164282
v 0.200602 0.066140 0.164282
v 0.208397 0.069369 0.164282
v 0.200602 0.077164 0.164282
vt 0.577722 0.830277
vt 0.500955 0.830277
vt 0.489808 0.604550
vt 0.577723 0.604626
vt 0.223975 0.000177
vt 0.223975 0.088093
vt 0.000177 0.088092
vt 0.000177 0.000177
vt 0.399910 0.745582
vt 0.323143 0.745582
vt 0.330215 0.604550
vt 0.399911 0.604550
vt 0.000177 0.633140
vt 0.005661 0.563660
vt 0.218491 0.563660
vt 0.223975 0.633140
vt 0.223975 0.774172
vt 0.000177 0.774172
vt 0.005661 0.422450
vt 0.218491 0.422450
vt 0.311996 0.971310
vt 0.231830 0.941679
vt 0.239863 0.784515
vt 0.223975 0.999823
vt 0.000177 0.999823
vt 0.399911 0.971233
vt 0.577723 0.971309
vt 0.508026 0.971310
vt 0.008177 0.173184
vt 0.215975 0.173184
vt 0.215975 0.330553
vt 0.008177 0.330553
vt 0.417675 0.791344
vt 0.409642 0.634180
vt 0.280402 0.309880
vt 0.280402 0.274921
vt 0.309416 0.274921
vt 0.309416 0.309880
vt 0.280402 0.239962
vt 0.280402 0.205002
vt 0.309417 0.205002
vt 0.309417 0.239962
vt 0.280402 0.135084
vt 0.280402 0.100125
vt 0.309417 0.100125
vt 0.309417 0.135084
vt 0.280402 0.065165
vt 0.280402 0.030206
vt 0.309416 0.030206
vt 0.309416 0.065165
vt 0.280403 0.170043
vt 0.309417 0.170043
vt 0.447936 0.519803
vt 0.415417 0.550949
vt 0.410753 0.538534
vt 0.435268 0.514245
vt 0.372273 0.549995
vt 0.343065 0.520781
vt 0.353889 0.515839
vt 0.377423 0.538371
vt 0.340134 0.479602
vt 0.367622 0.446418
vt 0.373952 0.458051
vt 0.352279 0.483318
vt 0.412380 0.442176
vt 0.447936 0.472816
vt 0.434655 0.478899
vt 0.408318 0.455382
vt 0.404241 0.469264
vt 0.380706 0.470304
vt 0.404680 0.525994
vt 0.421614 0.509603
vt 0.366019 0.509642
vt 0.381767 0.525625
vt 0.365227 0.487190
vt 0.421892 0.485591
vt 0.407504 0.503864
vt 0.407363 0.491832
vt 0.387234 0.512340
vt 0.399044 0.512322
vt 0.378633 0.492360
vt 0.378767 0.504147
vt 0.398719 0.483464
vt 0.386764 0.483797
vt 0.389696 0.489759
vt 0.384843 0.494484
vt 0.401394 0.494751
vt 0.396554 0.489844
vt 0.401160 0.501627
vt 0.389402 0.506156
vt 0.396176 0.506342
vt 0.384790 0.501239
vt 0.394169 0.501485
vt 0.396216 0.499573
vt 0.389516 0.499388
vt 0.391392 0.501393
vt 0.391514 0.494691
vt 0.389535 0.496641
vt 0.396300 0.496736
vt 0.394315 0.494708
vt 0.392870 0.498076
vt 0.362272 0.314223
vt 0.362272 0.279264
vt 0.391286 0.279264
vt 0.391286 0.314223
vt 0.362272 0.244304
vt 0.362272 0.209345
vt 0.391286 0.209345
vt 0.391286 0.244304
vt 0.362272 0.139427
vt 0.362272 0.104467
vt 0.391286 0.104467
vt 0.391286 0.139427
vt 0.362272 0.069508
vt 0.362272 0.034549
vt 0.391286 0.034549
vt 0.391286 0.069508
vt 0.362272 0.174386
vt 0.391286 0.174386
vt 0.447936 0.410675
vt 0.415417 0.441821
vt 0.410752 0.429406
vt 0.435268 0.405117
vt 0.372273 0.440868
vt 0.343065 0.411653
vt 0.353889 0.406711
vt 0.377423 0.429243
vt 0.340134 0.370474
vt 0.367622 0.337290
vt 0.373952 0.348923
vt 0.352279 0.374190
vt 0.412380 0.333048
vt 0.447936 0.363688
vt 0.434655 0.369771
vt 0.408318 0.346254
vt 0.404240 0.360136
vt 0.380706 0.361176
vt 0.404680 0.416866
vt 0.421614 0.400475
vt 0.366018 0.400515
vt 0.381767 0.416497
vt 0.365227 0.378062
vt 0.421892 0.376463
vt 0.407504 0.394736
vt 0.407363 0.382704
vt 0.387234 0.403212
vt 0.399044 0.403194
vt 0.378633 0.383232
vt 0.378767 0.395019
vt 0.398718 0.374336
vt 0.386764 0.374669
vt 0.389696 0.380631
vt 0.384843 0.385357
vt 0.401394 0.385623
vt 0.396554 0.380716
vt 0.401160 0.392499
vt 0.389402 0.397028
vt 0.396176 0.397214
vt 0.384790 0.392111
vt 0.394169 0.392357
vt 0.396216 0.390445
vt 0.389516 0.390260
vt 0.391392 0.392265
vt 0.391514 0.385563
vt 0.389535 0.387513
vt 0.396300 0.387609
vt 0.394314 0.385580
vt 0.392870 0.388949
vt 0.330570 0.174386
vt 0.330570 0.139427
vt 0.361918 0.139427
vt 0.361918 0.174386
vt 0.332904 0.104467
vt 0.332904 0.069508
vt 0.361918 0.069508
vt 0.361918 0.104467
vt 0.332904 0.279264
vt 0.332904 0.244304
vt 0.361918 0.244304
vt 0.361918 0.279264
vt 0.330570 0.209345
vt 0.361918 0.209345
vt 0.332904 0.034549
vt 0.361918 0.034549
vt 0.332904 0.314223
vt 0.361918 0.314223
vt 0.232827 0.360088
vt 0.270290 0.333033
vt 0.273664 0.345880
vt 0.245378 0.366875
vt 0.312217 0.336903
vt 0.339779 0.367807
vt 0.328519 0.372050
vt 0.306337 0.348054
vt 0.339779 0.409977
vt 0.309226 0.441025
vt 0.303790 0.428864
vt 0.327771 0.405259
vt 0.264329 0.441821
vt 0.230236 0.409011
vt 0.244213 0.403644
vt 0.269276 0.428861
vt 0.275449 0.413113
vt 0.297975 0.416033
vt 0.277554 0.357747
vt 0.262474 0.375080
vt 0.315881 0.377386
vt 0.301088 0.360257
vt 0.315004 0.400442
vt 0.260119 0.396852
vt 0.274510 0.380633
vt 0.274045 0.392081
vt 0.294750 0.373412
vt 0.283101 0.372813
vt 0.302254 0.394016
vt 0.302654 0.382076
vt 0.281579 0.400705
vt 0.292894 0.401091
vt 0.290999 0.395557
vt 0.295732 0.390890
vt 0.279862 0.389735
vt 0.284172 0.394837
vt 0.280489 0.383133
vt 0.292189 0.379411
vt 0.285582 0.378830
vt 0.296338 0.384509
vt 0.287247 0.383678
vt 0.285144 0.385415
vt 0.291633 0.386002
vt 0.289943 0.383939
vt 0.289435 0.390448
vt 0.291439 0.388659
vt 0.284891 0.388160
vt 0.286685 0.390267
vt 0.288301 0.387071
vt 0.248700 0.170043
vt 0.248700 0.135084
vt 0.280048 0.135084
vt 0.280048 0.170043
vt 0.251034 0.100125
vt 0.251034 0.065165
vt 0.280048 0.065165
vt 0.280048 0.100125
vt 0.251034 0.274921
vt 0.251034 0.239962
vt 0.280048 0.239962
vt 0.280048 0.274921
vt 0.248700 0.205002
vt 0.280048 0.205002
vt 0.251034 0.030206
vt 0.280048 0.030206
vt 0.251034 0.309880
vt 0.280048 0.309880
vt 0.232827 0.469230
vt 0.270290 0.442176
vt 0.273664 0.455022
vt 0.245378 0.476017
vt 0.312217 0.446045
vt 0.339779 0.476950
vt 0.328520 0.481192
vt 0.306337 0.457197
vt 0.339779 0.519119
vt 0.309226 0.550168
vt 0.303790 0.538006
vt 0.327771 0.514401
vt 0.264329 0.550964
vt 0.230236 0.518153
vt 0.244213 0.512786
vt 0.269276 0.538003
vt 0.275449 0.522255
vt 0.297975 0.525176
vt 0.277554 0.466889
vt 0.262474 0.484222
vt 0.315881 0.486528
vt 0.301088 0.469399
vt 0.315004 0.509584
vt 0.260119 0.505994
vt 0.274510 0.489775
vt 0.274045 0.501224
vt 0.294750 0.482554
vt 0.283101 0.481956
vt 0.302254 0.503158
vt 0.302655 0.491219
vt 0.281579 0.509848
vt 0.292894 0.510233
vt 0.290999 0.504699
vt 0.295732 0.500033
vt 0.279862 0.498877
vt 0.284173 0.503979
vt 0.280489 0.492275
vt 0.292189 0.488553
vt 0.285582 0.487972
vt 0.296338 0.493652
vt 0.287247 0.492820
vt 0.285144 0.494557
vt 0.291633 0.495144
vt 0.289943 0.493081
vt 0.289435 0.499591
vt 0.291439 0.497802
vt 0.284891 0.497303
vt 0.286685 0.499410
vt 0.288301 0.496214
vn 0.0130 0.0333 0.9994
vn -1.0000 -0.0000 0.0000
vn 0.0019 0.0749 -0.9972
vn 1.0000 -0.0000 0.0000
vn 0.0000 -1.0000 0.0000
vn 0.0502 0.9987 0.0000
vn 0.0176 0.0654 -0.9977
vn 0.0130 0.0333 -0.9994
vn 0.0019 0.0749 0.9972
vn 0.0176 0.0654 0.9977
vn -0.9378 0.3472 0.0000
vn 0.9058 0.4237 -0.0000
vn -0.9239 -0.3827 0.0000
vn 0.3827 -0.9239 -0.0000
vn 0.3827 0.9239 -0.0000
vn -0.9239 0.3827 0.0000
vn -0.3827 -0.9239 0.0000
vn 0.9239 -0.3827 -0.0000
vn 0.9239 0.3827 -0.0000
vn -0.3827 0.9239 0.0000
vn 0.0000 0.0000 1.0000
vn -0.0000 0.0000 -1.0000
vn -0.0550 -0.1329 -0.9896
vn -0.1329 0.0550 -0.9896
vn -0.0261 0.0891 -0.9957
vn -0.0261 -0.0891 -0.9957
vn -0.1329 -0.0550 -0.9896
vn -0.0550 0.1329 -0.9896
s 1
f 9/1/1 10/2/1 4/3/1 3/4/1
f 3/5/2 4/6/2 8/7/2 7/8/2
f 11/9/3 12/10/3 6/11/3 5/12/3
f 5/13/4 6/14/4 2/15/4 1/16/4
f 9/17/5 11/18/5 5/13/5 1/16/5
f 12/19/6 10/20/6 2/15/6 6/14/6
f 12/10/7 8/21/7 15/22/7 16/23/7
f 3/24/5 7/25/5 11/18/5 9/17/5
f 7/26/8 8/21/8 12/10/8 11/9/8
f 1/27/9 2/28/9 10/2/9 9/1/9
f 15/29/6 14/30/6 13/31/6 16/32/6
f 4/3/10 10/2/10 13/33/10 14/34/10
f 8/7/11 4/6/11 14/30/11 15/29/11
f 10/20/12 12/19/12 16/32/12 13/31/12
f 21/35/13 20/36/13 28/37/13 29/38/13
f 19/39/14 18/40/14 26/41/14 27/42/14
f 24/43/15 23/44/15 31/45/15 32/46/15
f 22/47/16 21/48/16 29/49/16 30/50/16
f 20/36/17 19/39/17 27/42/17 28/37/17
f 18/40/18 17/51/18 25/52/18 26/41/18
f 17/51/19 24/43/19 32/46/19 25/52/19
f 23/44/20 22/47/20 30/50/20 31/45/20
f 32/53/21 31/54/21 39/55/21 40/56/21
f 30/57/21 29/58/21 37/59/21 38/60/21
f 28/61/21 27/62/21 35/63/21 36/64/21
f 26/65/21 25/66/21 33/67/21 34/68/21
f 25/66/21 32/53/21 40/56/21 33/67/21
f 31/54/21 30/57/21 38/60/21 39/55/21
f 29/58/21 28/61/21 36/64/21 37/59/21
f 27/62/21 26/65/21 34/68/21 35/63/21
f 35/63/20 34/68/20 42/69/20 43/70/20
f 40/56/17 39/55/17 47/71/17 48/72/17
f 38/60/18 37/59/18 45/73/18 46/74/18
f 36/64/15 35/63/15 43/70/15 44/75/15
f 34/68/16 33/67/16 41/76/16 42/69/16
f 33/67/13 40/56/13 48/72/13 41/76/13
f 39/55/14 38/60/14 46/74/14 47/71/14
f 37/59/19 36/64/19 44/75/19 45/73/19
f 41/76/21 48/72/21 56/77/21 49/78/21
f 47/71/21 46/74/21 54/79/21 55/80/21
f 45/73/21 44/75/21 52/81/21 53/82/21
f 43/70/21 42/69/21 50/83/21 51/84/21
f 48/72/21 47/71/21 55/80/21 56/77/21
f 46/74/21 45/73/21 53/82/21 54/79/21
f 44/75/21 43/70/21 51/84/21 52/81/21
f 42/69/21 41/76/21 49/78/21 50/83/21
f 52/81/15 51/84/15 59/85/15 60/86/15
f 50/83/16 49/78/16 57/87/16 58/88/16
f 49/78/13 56/77/13 64/89/13 57/87/13
f 55/80/14 54/79/14 62/90/14 63/91/14
f 53/82/19 52/81/19 60/86/19 61/92/19
f 51/84/20 50/83/20 58/88/20 59/85/20
f 56/77/17 55/80/17 63/91/17 64/89/17
f 54/79/18 53/82/18 61/92/18 62/90/18
f 64/89/21 63/91/21 71/93/21 72/94/21
f 62/90/21 61/92/21 69/95/21 70/96/21
f 60/86/21 59/85/21 67/97/21 68/98/21
f 58/88/21 57/87/21 65/99/21 66/100/21
f 57/87/21 64/89/21 72/94/21 65/99/21
f 63/91/21 62/90/21 70/96/21 71/93/21
f 61/92/21 60/86/21 68/98/21 69/95/21
f 59/85/21 58/88/21 66/100/21 67/97/21
f 69/95/21 68/98/21 73/101/21
f 67/97/21 66/100/21 73/101/21
f 72/94/21 71/93/21 73/101/21
f 70/96/21 69/95/21 73/101/21
f 68/98/21 67/97/21 73/101/21
f 66/100/21 65/99/21 73/101/21
f 65/99/21 72/94/21 73/101/21
f 71/93/21 70/96/21 73/101/21
f 78/102/13 77/103/13 85/104/13 86/105/13
f 76/106/14 75/107/14 83/108/14 84/109/14
f 81/110/15 80/111/15 88/112/15 89/113/15
f 79/114/16 78/115/16 86/116/16 87/117/16
f 77/103/17 76/106/17 84/109/17 85/104/17
f 75/107/18 74/118/18 82/119/18 83/108/18
f 74/118/19 81/110/19 89/113/19 82/119/19
f 80/111/20 79/114/20 87/117/20 88/112/20
f 89/120/21 88/121/21 96/122/21 97/123/21
f 87/124/21 86/125/21 94/126/21 95/127/21
f 85/128/21 84/129/21 92/130/21 93/131/21
f 83/132/21 82/133/21 90/134/21 91/135/21
f 82/133/21 89/120/21 97/123/21 90/134/21
f 88/121/21 87/124/21 95/127/21 96/122/21
f 86/125/21 85/128/21 93/131/21 94/126/21
f 84/129/21 83/132/21 91/135/21 92/130/21
f 92/130/20 91/135/20 99/136/20 100/137/20
f 97/123/17 96/122/17 104/138/17 105/139/17
f 95/127/18 94/126/18 102/140/18 103/141/18
f 93/131/15 92/130/15 100/137/15 101/142/15
f 91/135/16 90/134/16 98/143/16 99/136/16
f 90/134/13 97/123/13 105/139/13 98/143/13
f 96/122/14 95/127/14 103/141/14 104/138/14
f 94/126/19 93/131/19 101/142/19 102/140/19
f 98/143/21 105/139/21 113/144/21 106/145/21
f 104/138/21 103/141/21 111/146/21 112/147/21
f 102/140/21 101/142/21 109/148/21 110/149/21
f 100/137/21 99/136/21 107/150/21 108/151/21
f 105/139/21 104/138/21 112/147/21 113/144/21
f 103/141/21 102/140/21 110/149/21 111/146/21
f 101/142/21 100/137/21 108/151/21 109/148/21
f 99/136/21 98/143/21 106/145/21 107/150/21
f 109/148/15 108/151/15 116/152/15 117/153/15
f 107/150/16 106/145/16 114/154/16 115/155/16
f 106/145/13 113/144/13 121/156/13 114/154/13
f 112/147/14 111/146/14 119/157/14 120/158/14
f 110/149/19 109/148/19 117/153/19 118/159/19
f 108/151/20 107/150/20 115/155/20 116/152/20
f 113/144/17 112/147/17 120/158/17 121/156/17
f 111/146/18 110/149/18 118/159/18 119/157/18
f 121/156/21 120/158/21 128/160/21 129/161/21
f 119/157/21 118/159/21 126/162/21 127/163/21
f 117/153/21 116/152/21 124/164/21 125/165/21
f 115/155/21 114/154/21 122/166/21 123/167/21
f 114/154/21 121/156/21 129/161/21 122/166/21
f 120/158/21 119/157/21 127/163/21 128/160/21
f 118/159/21 117/153/21 125/165/21 126/162/21
f 116/152/21 115/155/21 123/167/21 124/164/21
f 126/162/21 125/165/21 130/168/21
f 124/164/21 123/167/21 130/168/21
f 129/161/21 128/160/21 130/168/21
f 127/163/21 126/162/21 130/168/21
f 125/165/21 124/164/21 130/168/21
f 123/167/21 122/166/21 130/168/21
f 122/166/21 129/161/21 130/168/21
f 128/160/21 127/163/21 130/168/21
f 135/169/18 134/170/18 142/171/18 143/172/18
f 133/173/17 132/174/17 140/175/17 141/176/17
f 138/177/20 137/178/20 145/179/20 146/180/20
f 136/181/19 135/169/19 143/172/19 144/182/19
f 134/170/14 133/173/14 141/176/14 142/171/14
f 132/174/13 131/183/13 139/184/13 140/175/13
f 131/185/16 138/177/16 146/180/16 139/186/16
f 137/178/15 136/181/15 144/182/15 145/179/15
f 146/187/22 145/188/22 153/189/22 154/190/22
f 144/191/22 143/192/22 151/193/22 152/194/22
f 142/195/22 141/196/22 149/197/22 150/198/22
f 140/199/22 139/200/22 147/201/22 148/202/22
f 139/200/22 146/187/22 154/190/22 147/201/22
f 145/188/22 144/191/22 152/194/22 153/189/22
f 143/192/22 142/195/22 150/198/22 151/193/22
f 141/196/22 140/199/22 148/202/22 149/197/22
f 149/197/15 148/202/15 156/203/15 157/204/15
f 154/190/14 153/189/14 161/205/14 162/206/14
f 152/194/13 151/193/13 159/207/13 160/208/13
f 150/198/20 149/197/20 157/204/20 158/209/20
f 148/202/19 147/201/19 155/210/19 156/203/19
f 147/201/18 154/190/18 162/206/18 155/210/18
f 153/189/17 152/194/17 160/208/17 161/205/17
f 151/193/16 150/198/16 158/209/16 159/207/16
f 155/210/22 162/206/22 170/211/22 163/212/22
f 161/205/23 160/208/23 168/213/23 169/214/23
f 159/207/24 158/209/24 166/215/24 167/216/24
f 157/204/25 156/203/25 164/217/25 165/218/25
f 162/206/26 161/205/26 169/214/26 170/211/26
f 160/208/27 159/207/27 167/216/27 168/213/27
f 158/209/28 157/204/28 165/218/28 166/215/28
f 156/203/22 155/210/22 163/212/22 164/217/22
f 166/215/20 165/218/20 173/219/20 174/220/20
f 164/217/19 163/212/19 171/221/19 172/222/19
f 163/212/18 170/211/18 178/223/18 171/221/18
f 169/214/17 168/213/17 176/224/17 177/225/17
f 167/216/16 166/215/16 174/220/16 175/226/16
f 165/218/15 164/217/15 172/222/15 173/219/15
f 170/211/14 169/214/14 177/225/14 178/223/14
f 168/213/13 167/216/13 175/226/13 176/224/13
f 178/223/22 177/225/22 185/227/22 186/228/22
f 176/224/22 175/226/22 183/229/22 184/230/22
f 174/220/22 173/219/22 181/231/22 182/232/22
f 172/222/22 171/221/22 179/233/22 180/234/22
f 171/221/22 178/223/22 186/228/22 179/233/22
f 177/225/22 176/224/22 184/230/22 185/227/22
f 175/226/22 174/220/22 182/232/22 183/229/22
f 173/219/22 172/222/22 180/234/22 181/231/22
f 183/229/22 182/232/22 187/235/22
f 181/231/22 180/234/22 187/235/22
f 186/228/22 185/227/22 187/235/22
f 184/230/22 183/229/22 187/235/22
f 182/232/22 181/231/22 187/235/22
f 180/234/22 179/233/22 187/235/22
f 179/233/22 186/228/22 187/235/22
f 185/227/22 184/230/22 187/235/22
f 192/236/18 191/237/18 199/238/18 200/239/18
f 190/240/17 189/241/17 197/242/17 198/243/17
f 195/244/20 194/245/20 202/246/20 203/247/20
f 193/248/19 192/236/19 200/239/19 201/249/19
f 191/237/14 190/240/14 198/243/14 199/238/14
f 189/241/13 188/250/13 196/251/13 197/242/13
f 188/252/16 195/244/16 203/247/16 196/253/16
f 194/245/15 193/248/15 201/249/15 202/246/15
f 203/254/22 202/255/22 210/256/22 211/257/22
f 201/258/22 200/259/22 208/260/22 209/261/22
f 199/262/22 198/263/22 206/264/22 207/265/22
f 197/266/22 196/267/22 204/268/22 205/269/22
f 196/267/22 203/254/22 211/257/22 204/268/22
f 202/255/22 201/258/22 209/261/22 210/256/22
f 200/259/22 199/262/22 207/265/22 208/260/22
f 198/263/22 197/266/22 205/269/22 206/264/22
f 206/264/15 205/269/15 213/270/15 214/271/15
f 211/257/14 210/256/14 218/272/14 219/273/14
f 209/261/13 208/260/13 216/274/13 217/275/13
f 207/265/20 206/264/20 214/271/20 215/276/20
f 205/269/19 204/268/19 212/277/19 213/270/19
f 204/268/18 211/257/18 219/273/18 212/277/18
f 210/256/17 209/261/17 217/275/17 218/272/17
f 208/260/16 207/265/16 215/276/16 216/274/16
f 212/277/22 219/273/22 227/278/22 220/279/22
f 218/272/23 217/275/23 225/280/23 226/281/23
f 216/274/24 215/276/24 223/282/24 224/283/24
f 214/271/25 213/270/25 221/284/25 222/285/25
f 219/273/26 218/272/26 226/281/26 227/278/26
f 217/275/27 216/274/27 224/283/27 225/280/27
f 215/276/28 214/271/28 222/285/28 223/282/28
f 213/270/22 212/277/22 220/279/22 221/284/22
f 223/282/20 222/285/20 230/286/20 231/287/20
f 221/284/19 220/279/19 228/288/19 229/289/19
f 220/279/18 227/278/18 235/290/18 228/288/18
f 226/281/17 225/280/17 233/291/17 234/292/17
f 224/283/16 223/282/16 231/287/16 232/293/16
f 222/285/15 221/284/15 229/289/15 230/286/15
f 227/278/14 226/281/14 234/292/14 235/290/14
f 225/280/13 224/283/13 232/293/13 233/291/13
f 235/290/22 234/292/22 242/294/22 243/295/22
f 233/291/22 232/293/22 240/296/22 241/297/22
f 231/287/22 230/286/22 238/298/22 239/299/22
f 229/289/22 228/288/22 236/300/22 237/301/22
f 228/288/22 235/290/22 243/295/22 236/300/22
f 234/292/22 233/291/22 241/297/22 242/294/22
f 232/293/22 231/287/22 239/299/22 240/296/22
f 230/286/22 229/289/22 237/301/22 238/298/22
f 240/296/22 239/299/22 244/302/22
f 238/298/22 237/301/22 244/302/22
f 243/295/22 242/294/22 244/302/22
f 241/297/22 240/296/22 244/302/22
f 239/299/22 238/298/22 244/302/22
f 237/301/22 236/300/22 244/302/22
f 236/300/22 243/295/22 244/302/22
f 242/294/22 241/297/22 244/302/22
